ISO-10303-21;
HEADER;
/* Generated by software containing ST-Developer
 * from STEP Tools, Inc. (www.steptools.com) 
 */

FILE_DESCRIPTION(
/* description */ (''),
/* implementation_level */ '2;1');

FILE_NAME(
/* name */ 'PE4820-I.step',
/* time_stamp */ '2026-01-15T20:54:59+08:00',
/* author */ (''),
/* organization */ (''),
/* preprocessor_version */ 'ST-DEVELOPER v20.1',
/* originating_system */ 'Autodesk Translation Framework v14.21.0.0',
/* authorisation */ '');

FILE_SCHEMA (('AUTOMOTIVE_DESIGN { 1 0 10303 214 3 1 1 }'));
ENDSEC;

DATA;
#10=MECHANICAL_DESIGN_GEOMETRIC_PRESENTATION_REPRESENTATION('',(#13,#14,
#15,#16,#17,#18,#19,#20,#21,#22,#23,#24,#25),#1708);
#11=SHAPE_REPRESENTATION_RELATIONSHIP('SRR','None',#1715,#12);
#12=ADVANCED_BREP_SHAPE_REPRESENTATION('',(#26,#27,#28,#29,#30,#31,#32,
#33,#34,#35,#36,#37,#38),#1707);
#13=STYLED_ITEM('',(#1725),#26);
#14=STYLED_ITEM('',(#1726),#27);
#15=STYLED_ITEM('',(#1726),#28);
#16=STYLED_ITEM('',(#1726),#29);
#17=STYLED_ITEM('',(#1726),#30);
#18=STYLED_ITEM('',(#1726),#31);
#19=STYLED_ITEM('',(#1726),#32);
#20=STYLED_ITEM('',(#1726),#33);
#21=STYLED_ITEM('',(#1726),#34);
#22=STYLED_ITEM('',(#1726),#35);
#23=STYLED_ITEM('',(#1726),#36);
#24=STYLED_ITEM('',(#1726),#37);
#25=STYLED_ITEM('',(#1726),#38);
#26=MANIFOLD_SOLID_BREP('\X2\5B9E4F53\X0\1',#941);
#27=MANIFOLD_SOLID_BREP('\X2\5B9E4F53\X0\2',#942);
#28=MANIFOLD_SOLID_BREP('\X2\5B9E4F53\X0\3',#943);
#29=MANIFOLD_SOLID_BREP('\X2\5B9E4F53\X0\4',#944);
#30=MANIFOLD_SOLID_BREP('\X2\5B9E4F53\X0\5',#945);
#31=MANIFOLD_SOLID_BREP('\X2\5B9E4F53\X0\6',#946);
#32=MANIFOLD_SOLID_BREP('\X2\5B9E4F53\X0\7',#947);
#33=MANIFOLD_SOLID_BREP('\X2\5B9E4F53\X0\8',#948);
#34=MANIFOLD_SOLID_BREP('\X2\5B9E4F53\X0\9',#949);
#35=MANIFOLD_SOLID_BREP('\X2\5B9E4F53\X0\10',#950);
#36=MANIFOLD_SOLID_BREP('\X2\5B9E4F53\X0\11',#951);
#37=MANIFOLD_SOLID_BREP('\X2\5B9E4F53\X0\12',#952);
#38=MANIFOLD_SOLID_BREP('\X2\5B9E4F53\X0\13',#953);
#39=FACE_BOUND('',#320,.T.);
#40=PLANE('',#1007);
#41=PLANE('',#1008);
#42=PLANE('',#1009);
#43=PLANE('',#1010);
#44=PLANE('',#1011);
#45=PLANE('',#1040);
#46=PLANE('',#1041);
#47=PLANE('',#1042);
#48=PLANE('',#1043);
#49=PLANE('',#1044);
#50=PLANE('',#1045);
#51=PLANE('',#1049);
#52=PLANE('',#1050);
#53=PLANE('',#1054);
#54=PLANE('',#1055);
#55=PLANE('',#1059);
#56=PLANE('',#1060);
#57=PLANE('',#1064);
#58=PLANE('',#1065);
#59=PLANE('',#1069);
#60=PLANE('',#1070);
#61=PLANE('',#1074);
#62=PLANE('',#1075);
#63=PLANE('',#1079);
#64=PLANE('',#1080);
#65=PLANE('',#1084);
#66=PLANE('',#1085);
#67=PLANE('',#1089);
#68=PLANE('',#1090);
#69=PLANE('',#1094);
#70=PLANE('',#1095);
#71=PLANE('',#1099);
#72=PLANE('',#1100);
#73=PLANE('',#1104);
#74=PLANE('',#1105);
#75=SPHERICAL_SURFACE('',#985,0.499999999999998);
#76=SPHERICAL_SURFACE('',#992,0.499999999999998);
#77=SPHERICAL_SURFACE('',#998,0.499999999999998);
#78=SPHERICAL_SURFACE('',#1012,0.499999999999998);
#79=SPHERICAL_SURFACE('',#1018,0.499999999999998);
#80=SPHERICAL_SURFACE('',#1024,0.499999999999998);
#81=SPHERICAL_SURFACE('',#1031,0.499999999999998);
#82=ELLIPSE('',#978,0.707106781186546,0.5);
#83=ELLIPSE('',#991,0.707106781186548,0.5);
#84=LINE('',#1462,#139);
#85=LINE('',#1464,#140);
#86=LINE('',#1476,#141);
#87=LINE('',#1477,#142);
#88=LINE('',#1486,#143);
#89=LINE('',#1487,#144);
#90=LINE('',#1490,#145);
#91=LINE('',#1492,#146);
#92=LINE('',#1502,#147);
#93=LINE('',#1503,#148);
#94=LINE('',#1505,#149);
#95=LINE('',#1506,#150);
#96=LINE('',#1515,#151);
#97=LINE('',#1516,#152);
#98=LINE('',#1518,#153);
#99=LINE('',#1519,#154);
#100=LINE('',#1521,#155);
#101=LINE('',#1522,#156);
#102=LINE('',#1524,#157);
#103=LINE('',#1525,#158);
#104=LINE('',#1527,#159);
#105=LINE('',#1528,#160);
#106=LINE('',#1530,#161);
#107=LINE('',#1534,#162);
#108=LINE('',#1536,#163);
#109=LINE('',#1538,#164);
#110=LINE('',#1539,#165);
#111=LINE('',#1553,#166);
#112=LINE('',#1554,#167);
#113=LINE('',#1565,#168);
#114=LINE('',#1566,#169);
#115=LINE('',#1577,#170);
#116=LINE('',#1578,#171);
#117=LINE('',#1580,#172);
#118=LINE('',#1591,#173);
#119=LINE('',#1592,#174);
#120=LINE('',#1594,#175);
#121=LINE('',#1596,#176);
#122=LINE('',#1598,#177);
#123=LINE('',#1600,#178);
#124=LINE('',#1602,#179);
#125=LINE('',#1605,#180);
#126=LINE('',#1607,#181);
#127=LINE('',#1613,#182);
#128=LINE('',#1621,#183);
#129=LINE('',#1629,#184);
#130=LINE('',#1637,#185);
#131=LINE('',#1645,#186);
#132=LINE('',#1653,#187);
#133=LINE('',#1661,#188);
#134=LINE('',#1669,#189);
#135=LINE('',#1677,#190);
#136=LINE('',#1685,#191);
#137=LINE('',#1693,#192);
#138=LINE('',#1701,#193);
#139=VECTOR('',#1130,10.);
#140=VECTOR('',#1131,10.);
#141=VECTOR('',#1146,10.);
#142=VECTOR('',#1147,10.);
#143=VECTOR('',#1158,10.);
#144=VECTOR('',#1159,10.);
#145=VECTOR('',#1162,10.);
#146=VECTOR('',#1163,10.);
#147=VECTOR('',#1176,10.);
#148=VECTOR('',#1177,10.);
#149=VECTOR('',#1180,10.);
#150=VECTOR('',#1181,10.);
#151=VECTOR('',#1192,10.);
#152=VECTOR('',#1193,10.);
#153=VECTOR('',#1196,10.);
#154=VECTOR('',#1197,10.);
#155=VECTOR('',#1200,10.);
#156=VECTOR('',#1201,10.);
#157=VECTOR('',#1204,10.);
#158=VECTOR('',#1205,10.);
#159=VECTOR('',#1208,10.);
#160=VECTOR('',#1209,10.);
#161=VECTOR('',#1212,10.);
#162=VECTOR('',#1215,10.);
#163=VECTOR('',#1216,10.);
#164=VECTOR('',#1217,10.);
#165=VECTOR('',#1218,10.);
#166=VECTOR('',#1237,10.);
#167=VECTOR('',#1238,10.);
#168=VECTOR('',#1251,10.);
#169=VECTOR('',#1252,10.);
#170=VECTOR('',#1265,10.);
#171=VECTOR('',#1266,10.);
#172=VECTOR('',#1269,10.);
#173=VECTOR('',#1282,10.);
#174=VECTOR('',#1283,10.);
#175=VECTOR('',#1286,10.);
#176=VECTOR('',#1289,10.);
#177=VECTOR('',#1292,10.);
#178=VECTOR('',#1295,10.);
#179=VECTOR('',#1298,10.);
#180=VECTOR('',#1303,10.);
#181=VECTOR('',#1306,10.);
#182=VECTOR('',#1313,0.349999999999999);
#183=VECTOR('',#1324,0.349999999999999);
#184=VECTOR('',#1335,0.349999999999999);
#185=VECTOR('',#1346,0.349999999999999);
#186=VECTOR('',#1357,0.349999999999999);
#187=VECTOR('',#1368,0.349999999999999);
#188=VECTOR('',#1379,0.349999999999999);
#189=VECTOR('',#1390,0.349999999999999);
#190=VECTOR('',#1401,0.349999999999999);
#191=VECTOR('',#1412,0.349999999999999);
#192=VECTOR('',#1423,0.349999999999999);
#193=VECTOR('',#1434,0.349999999999999);
#194=CYLINDRICAL_SURFACE('',#977,0.5);
#195=CYLINDRICAL_SURFACE('',#984,0.5);
#196=CYLINDRICAL_SURFACE('',#989,0.5);
#197=CYLINDRICAL_SURFACE('',#990,0.5);
#198=CYLINDRICAL_SURFACE('',#996,0.5);
#199=CYLINDRICAL_SURFACE('',#997,0.5);
#200=CYLINDRICAL_SURFACE('',#1002,0.5);
#201=CYLINDRICAL_SURFACE('',#1003,0.5);
#202=CYLINDRICAL_SURFACE('',#1004,0.5);
#203=CYLINDRICAL_SURFACE('',#1005,0.5);
#204=CYLINDRICAL_SURFACE('',#1006,0.5);
#205=CYLINDRICAL_SURFACE('',#1016,0.5);
#206=CYLINDRICAL_SURFACE('',#1022,0.5);
#207=CYLINDRICAL_SURFACE('',#1028,0.5);
#208=CYLINDRICAL_SURFACE('',#1030,0.5);
#209=CYLINDRICAL_SURFACE('',#1035,0.5);
#210=CYLINDRICAL_SURFACE('',#1037,0.5);
#211=CYLINDRICAL_SURFACE('',#1038,0.5);
#212=CYLINDRICAL_SURFACE('',#1039,0.5);
#213=CYLINDRICAL_SURFACE('',#1046,0.349999999999999);
#214=CYLINDRICAL_SURFACE('',#1051,0.349999999999999);
#215=CYLINDRICAL_SURFACE('',#1056,0.349999999999999);
#216=CYLINDRICAL_SURFACE('',#1061,0.349999999999999);
#217=CYLINDRICAL_SURFACE('',#1066,0.349999999999999);
#218=CYLINDRICAL_SURFACE('',#1071,0.349999999999999);
#219=CYLINDRICAL_SURFACE('',#1076,0.349999999999999);
#220=CYLINDRICAL_SURFACE('',#1081,0.349999999999999);
#221=CYLINDRICAL_SURFACE('',#1086,0.349999999999999);
#222=CYLINDRICAL_SURFACE('',#1091,0.349999999999999);
#223=CYLINDRICAL_SURFACE('',#1096,0.349999999999999);
#224=CYLINDRICAL_SURFACE('',#1101,0.349999999999999);
#225=FACE_OUTER_BOUND('',#301,.T.);
#226=FACE_OUTER_BOUND('',#302,.T.);
#227=FACE_OUTER_BOUND('',#303,.T.);
#228=FACE_OUTER_BOUND('',#304,.T.);
#229=FACE_OUTER_BOUND('',#305,.T.);
#230=FACE_OUTER_BOUND('',#306,.T.);
#231=FACE_OUTER_BOUND('',#307,.T.);
#232=FACE_OUTER_BOUND('',#308,.T.);
#233=FACE_OUTER_BOUND('',#309,.T.);
#234=FACE_OUTER_BOUND('',#310,.T.);
#235=FACE_OUTER_BOUND('',#311,.T.);
#236=FACE_OUTER_BOUND('',#312,.T.);
#237=FACE_OUTER_BOUND('',#313,.T.);
#238=FACE_OUTER_BOUND('',#314,.T.);
#239=FACE_OUTER_BOUND('',#315,.T.);
#240=FACE_OUTER_BOUND('',#316,.T.);
#241=FACE_OUTER_BOUND('',#317,.T.);
#242=FACE_OUTER_BOUND('',#318,.T.);
#243=FACE_OUTER_BOUND('',#319,.T.);
#244=FACE_OUTER_BOUND('',#321,.T.);
#245=FACE_OUTER_BOUND('',#322,.T.);
#246=FACE_OUTER_BOUND('',#323,.T.);
#247=FACE_OUTER_BOUND('',#324,.T.);
#248=FACE_OUTER_BOUND('',#325,.T.);
#249=FACE_OUTER_BOUND('',#326,.T.);
#250=FACE_OUTER_BOUND('',#327,.T.);
#251=FACE_OUTER_BOUND('',#328,.T.);
#252=FACE_OUTER_BOUND('',#329,.T.);
#253=FACE_OUTER_BOUND('',#330,.T.);
#254=FACE_OUTER_BOUND('',#331,.T.);
#255=FACE_OUTER_BOUND('',#332,.T.);
#256=FACE_OUTER_BOUND('',#333,.T.);
#257=FACE_OUTER_BOUND('',#334,.T.);
#258=FACE_OUTER_BOUND('',#335,.T.);
#259=FACE_OUTER_BOUND('',#336,.T.);
#260=FACE_OUTER_BOUND('',#337,.T.);
#261=FACE_OUTER_BOUND('',#338,.T.);
#262=FACE_OUTER_BOUND('',#339,.T.);
#263=FACE_OUTER_BOUND('',#340,.T.);
#264=FACE_OUTER_BOUND('',#341,.T.);
#265=FACE_OUTER_BOUND('',#342,.T.);
#266=FACE_OUTER_BOUND('',#343,.T.);
#267=FACE_OUTER_BOUND('',#344,.T.);
#268=FACE_OUTER_BOUND('',#345,.T.);
#269=FACE_OUTER_BOUND('',#346,.T.);
#270=FACE_OUTER_BOUND('',#347,.T.);
#271=FACE_OUTER_BOUND('',#348,.T.);
#272=FACE_OUTER_BOUND('',#349,.T.);
#273=FACE_OUTER_BOUND('',#350,.T.);
#274=FACE_OUTER_BOUND('',#351,.T.);
#275=FACE_OUTER_BOUND('',#352,.T.);
#276=FACE_OUTER_BOUND('',#353,.T.);
#277=FACE_OUTER_BOUND('',#354,.T.);
#278=FACE_OUTER_BOUND('',#355,.T.);
#279=FACE_OUTER_BOUND('',#356,.T.);
#280=FACE_OUTER_BOUND('',#357,.T.);
#281=FACE_OUTER_BOUND('',#358,.T.);
#282=FACE_OUTER_BOUND('',#359,.T.);
#283=FACE_OUTER_BOUND('',#360,.T.);
#284=FACE_OUTER_BOUND('',#361,.T.);
#285=FACE_OUTER_BOUND('',#362,.T.);
#286=FACE_OUTER_BOUND('',#363,.T.);
#287=FACE_OUTER_BOUND('',#364,.T.);
#288=FACE_OUTER_BOUND('',#365,.T.);
#289=FACE_OUTER_BOUND('',#366,.T.);
#290=FACE_OUTER_BOUND('',#367,.T.);
#291=FACE_OUTER_BOUND('',#368,.T.);
#292=FACE_OUTER_BOUND('',#369,.T.);
#293=FACE_OUTER_BOUND('',#370,.T.);
#294=FACE_OUTER_BOUND('',#371,.T.);
#295=FACE_OUTER_BOUND('',#372,.T.);
#296=FACE_OUTER_BOUND('',#373,.T.);
#297=FACE_OUTER_BOUND('',#374,.T.);
#298=FACE_OUTER_BOUND('',#375,.T.);
#299=FACE_OUTER_BOUND('',#376,.T.);
#300=FACE_OUTER_BOUND('',#377,.T.);
#301=EDGE_LOOP('',(#626,#627,#628,#629));
#302=EDGE_LOOP('',(#630,#631,#632,#633));
#303=EDGE_LOOP('',(#634,#635,#636,#637));
#304=EDGE_LOOP('',(#638,#639,#640,#641));
#305=EDGE_LOOP('',(#642,#643,#644,#645));
#306=EDGE_LOOP('',(#646,#647,#648));
#307=EDGE_LOOP('',(#649,#650,#651,#652));
#308=EDGE_LOOP('',(#653,#654,#655,#656));
#309=EDGE_LOOP('',(#657,#658,#659));
#310=EDGE_LOOP('',(#660,#661,#662,#663));
#311=EDGE_LOOP('',(#664,#665,#666,#667));
#312=EDGE_LOOP('',(#668,#669,#670));
#313=EDGE_LOOP('',(#671,#672,#673,#674));
#314=EDGE_LOOP('',(#675,#676,#677,#678));
#315=EDGE_LOOP('',(#679,#680,#681,#682));
#316=EDGE_LOOP('',(#683,#684,#685,#686));
#317=EDGE_LOOP('',(#687,#688,#689,#690));
#318=EDGE_LOOP('',(#691,#692,#693,#694));
#319=EDGE_LOOP('',(#695,#696,#697,#698));
#320=EDGE_LOOP('',(#699,#700,#701,#702,#703,#704,#705));
#321=EDGE_LOOP('',(#706,#707,#708,#709));
#322=EDGE_LOOP('',(#710,#711,#712,#713));
#323=EDGE_LOOP('',(#714,#715,#716,#717));
#324=EDGE_LOOP('',(#718,#719,#720));
#325=EDGE_LOOP('',(#721,#722,#723,#724));
#326=EDGE_LOOP('',(#725,#726,#727));
#327=EDGE_LOOP('',(#728,#729,#730,#731));
#328=EDGE_LOOP('',(#732,#733,#734));
#329=EDGE_LOOP('',(#735,#736,#737,#738));
#330=EDGE_LOOP('',(#739,#740,#741,#742));
#331=EDGE_LOOP('',(#743,#744,#745));
#332=EDGE_LOOP('',(#746,#747,#748,#749));
#333=EDGE_LOOP('',(#750,#751,#752,#753));
#334=EDGE_LOOP('',(#754,#755,#756,#757));
#335=EDGE_LOOP('',(#758,#759,#760,#761));
#336=EDGE_LOOP('',(#762,#763,#764,#765));
#337=EDGE_LOOP('',(#766,#767,#768,#769));
#338=EDGE_LOOP('',(#770,#771,#772,#773));
#339=EDGE_LOOP('',(#774,#775,#776,#777));
#340=EDGE_LOOP('',(#778,#779,#780,#781));
#341=EDGE_LOOP('',(#782,#783,#784,#785,#786,#787,#788,#789));
#342=EDGE_LOOP('',(#790,#791,#792,#793));
#343=EDGE_LOOP('',(#794));
#344=EDGE_LOOP('',(#795));
#345=EDGE_LOOP('',(#796,#797,#798,#799));
#346=EDGE_LOOP('',(#800));
#347=EDGE_LOOP('',(#801));
#348=EDGE_LOOP('',(#802,#803,#804,#805));
#349=EDGE_LOOP('',(#806));
#350=EDGE_LOOP('',(#807));
#351=EDGE_LOOP('',(#808,#809,#810,#811));
#352=EDGE_LOOP('',(#812));
#353=EDGE_LOOP('',(#813));
#354=EDGE_LOOP('',(#814,#815,#816,#817));
#355=EDGE_LOOP('',(#818));
#356=EDGE_LOOP('',(#819));
#357=EDGE_LOOP('',(#820,#821,#822,#823));
#358=EDGE_LOOP('',(#824));
#359=EDGE_LOOP('',(#825));
#360=EDGE_LOOP('',(#826,#827,#828,#829));
#361=EDGE_LOOP('',(#830));
#362=EDGE_LOOP('',(#831));
#363=EDGE_LOOP('',(#832,#833,#834,#835));
#364=EDGE_LOOP('',(#836));
#365=EDGE_LOOP('',(#837));
#366=EDGE_LOOP('',(#838,#839,#840,#841));
#367=EDGE_LOOP('',(#842));
#368=EDGE_LOOP('',(#843));
#369=EDGE_LOOP('',(#844,#845,#846,#847));
#370=EDGE_LOOP('',(#848));
#371=EDGE_LOOP('',(#849));
#372=EDGE_LOOP('',(#850,#851,#852,#853));
#373=EDGE_LOOP('',(#854));
#374=EDGE_LOOP('',(#855));
#375=EDGE_LOOP('',(#856,#857,#858,#859));
#376=EDGE_LOOP('',(#860));
#377=EDGE_LOOP('',(#861));
#378=CIRCLE('',#968,0.999999999999999);
#379=CIRCLE('',#969,0.5);
#380=CIRCLE('',#970,0.499999999999998);
#381=CIRCLE('',#971,0.499999999999998);
#382=CIRCLE('',#973,0.999999999999999);
#383=CIRCLE('',#974,0.5);
#384=CIRCLE('',#975,0.499999999999998);
#385=CIRCLE('',#976,0.499999999999998);
#386=CIRCLE('',#980,0.999999999999999);
#387=CIRCLE('',#981,0.5);
#388=CIRCLE('',#982,0.499999999999998);
#389=CIRCLE('',#983,0.499999999999998);
#390=CIRCLE('',#986,0.5);
#391=CIRCLE('',#987,0.499999999999998);
#392=CIRCLE('',#988,0.499999999999998);
#393=CIRCLE('',#993,0.5);
#394=CIRCLE('',#994,0.499999999999998);
#395=CIRCLE('',#995,0.499999999999998);
#396=CIRCLE('',#999,0.5);
#397=CIRCLE('',#1000,0.499999999999998);
#398=CIRCLE('',#1001,0.499999999999998);
#399=CIRCLE('',#1013,0.499999999999998);
#400=CIRCLE('',#1014,0.499999999999998);
#401=CIRCLE('',#1015,0.499999999999998);
#402=CIRCLE('',#1017,0.5);
#403=CIRCLE('',#1019,0.499999999999998);
#404=CIRCLE('',#1020,0.499999999999998);
#405=CIRCLE('',#1021,0.499999999999998);
#406=CIRCLE('',#1023,0.5);
#407=CIRCLE('',#1025,0.499999999999998);
#408=CIRCLE('',#1026,0.499999999999998);
#409=CIRCLE('',#1027,0.499999999999998);
#410=CIRCLE('',#1029,0.5);
#411=CIRCLE('',#1032,0.499999999999998);
#412=CIRCLE('',#1033,0.499999999999998);
#413=CIRCLE('',#1034,0.499999999999998);
#414=CIRCLE('',#1036,0.5);
#415=CIRCLE('',#1047,0.349999999999999);
#416=CIRCLE('',#1048,0.349999999999999);
#417=CIRCLE('',#1052,0.349999999999999);
#418=CIRCLE('',#1053,0.349999999999999);
#419=CIRCLE('',#1057,0.349999999999999);
#420=CIRCLE('',#1058,0.349999999999999);
#421=CIRCLE('',#1062,0.349999999999999);
#422=CIRCLE('',#1063,0.349999999999999);
#423=CIRCLE('',#1067,0.349999999999999);
#424=CIRCLE('',#1068,0.349999999999999);
#425=CIRCLE('',#1072,0.349999999999999);
#426=CIRCLE('',#1073,0.349999999999999);
#427=CIRCLE('',#1077,0.349999999999999);
#428=CIRCLE('',#1078,0.349999999999999);
#429=CIRCLE('',#1082,0.349999999999999);
#430=CIRCLE('',#1083,0.349999999999999);
#431=CIRCLE('',#1087,0.349999999999999);
#432=CIRCLE('',#1088,0.349999999999999);
#433=CIRCLE('',#1092,0.349999999999999);
#434=CIRCLE('',#1093,0.349999999999999);
#435=CIRCLE('',#1097,0.349999999999999);
#436=CIRCLE('',#1098,0.349999999999999);
#437=CIRCLE('',#1102,0.349999999999999);
#438=CIRCLE('',#1103,0.349999999999999);
#439=VERTEX_POINT('',#1443);
#440=VERTEX_POINT('',#1444);
#441=VERTEX_POINT('',#1446);
#442=VERTEX_POINT('',#1448);
#443=VERTEX_POINT('',#1452);
#444=VERTEX_POINT('',#1453);
#445=VERTEX_POINT('',#1455);
#446=VERTEX_POINT('',#1457);
#447=VERTEX_POINT('',#1461);
#448=VERTEX_POINT('',#1463);
#449=VERTEX_POINT('',#1467);
#450=VERTEX_POINT('',#1468);
#451=VERTEX_POINT('',#1470);
#452=VERTEX_POINT('',#1472);
#453=VERTEX_POINT('',#1479);
#454=VERTEX_POINT('',#1480);
#455=VERTEX_POINT('',#1482);
#456=VERTEX_POINT('',#1489);
#457=VERTEX_POINT('',#1491);
#458=VERTEX_POINT('',#1495);
#459=VERTEX_POINT('',#1496);
#460=VERTEX_POINT('',#1498);
#461=VERTEX_POINT('',#1508);
#462=VERTEX_POINT('',#1509);
#463=VERTEX_POINT('',#1511);
#464=VERTEX_POINT('',#1532);
#465=VERTEX_POINT('',#1533);
#466=VERTEX_POINT('',#1535);
#467=VERTEX_POINT('',#1537);
#468=VERTEX_POINT('',#1544);
#469=VERTEX_POINT('',#1546);
#470=VERTEX_POINT('',#1550);
#471=VERTEX_POINT('',#1551);
#472=VERTEX_POINT('',#1556);
#473=VERTEX_POINT('',#1558);
#474=VERTEX_POINT('',#1562);
#475=VERTEX_POINT('',#1563);
#476=VERTEX_POINT('',#1568);
#477=VERTEX_POINT('',#1570);
#478=VERTEX_POINT('',#1574);
#479=VERTEX_POINT('',#1575);
#480=VERTEX_POINT('',#1582);
#481=VERTEX_POINT('',#1584);
#482=VERTEX_POINT('',#1588);
#483=VERTEX_POINT('',#1589);
#484=VERTEX_POINT('',#1610);
#485=VERTEX_POINT('',#1612);
#486=VERTEX_POINT('',#1618);
#487=VERTEX_POINT('',#1620);
#488=VERTEX_POINT('',#1626);
#489=VERTEX_POINT('',#1628);
#490=VERTEX_POINT('',#1634);
#491=VERTEX_POINT('',#1636);
#492=VERTEX_POINT('',#1642);
#493=VERTEX_POINT('',#1644);
#494=VERTEX_POINT('',#1650);
#495=VERTEX_POINT('',#1652);
#496=VERTEX_POINT('',#1658);
#497=VERTEX_POINT('',#1660);
#498=VERTEX_POINT('',#1666);
#499=VERTEX_POINT('',#1668);
#500=VERTEX_POINT('',#1674);
#501=VERTEX_POINT('',#1676);
#502=VERTEX_POINT('',#1682);
#503=VERTEX_POINT('',#1684);
#504=VERTEX_POINT('',#1690);
#505=VERTEX_POINT('',#1692);
#506=VERTEX_POINT('',#1698);
#507=VERTEX_POINT('',#1700);
#508=EDGE_CURVE('',#439,#440,#378,.T.);
#509=EDGE_CURVE('',#441,#440,#379,.T.);
#510=EDGE_CURVE('',#442,#441,#380,.F.);
#511=EDGE_CURVE('',#439,#442,#381,.T.);
#512=EDGE_CURVE('',#443,#444,#382,.T.);
#513=EDGE_CURVE('',#445,#444,#383,.T.);
#514=EDGE_CURVE('',#446,#445,#384,.F.);
#515=EDGE_CURVE('',#443,#446,#385,.T.);
#516=EDGE_CURVE('',#447,#445,#84,.T.);
#517=EDGE_CURVE('',#444,#448,#85,.T.);
#518=EDGE_CURVE('',#448,#447,#82,.T.);
#519=EDGE_CURVE('',#449,#450,#386,.T.);
#520=EDGE_CURVE('',#451,#450,#387,.T.);
#521=EDGE_CURVE('',#452,#451,#388,.F.);
#522=EDGE_CURVE('',#449,#452,#389,.T.);
#523=EDGE_CURVE('',#450,#443,#86,.T.);
#524=EDGE_CURVE('',#446,#451,#87,.T.);
#525=EDGE_CURVE('',#453,#454,#390,.F.);
#526=EDGE_CURVE('',#455,#453,#391,.F.);
#527=EDGE_CURVE('',#454,#455,#392,.F.);
#528=EDGE_CURVE('',#453,#442,#88,.T.);
#529=EDGE_CURVE('',#441,#455,#89,.T.);
#530=EDGE_CURVE('',#456,#453,#90,.T.);
#531=EDGE_CURVE('',#454,#457,#91,.T.);
#532=EDGE_CURVE('',#457,#456,#83,.T.);
#533=EDGE_CURVE('',#458,#459,#393,.F.);
#534=EDGE_CURVE('',#460,#458,#394,.F.);
#535=EDGE_CURVE('',#459,#460,#395,.F.);
#536=EDGE_CURVE('',#458,#446,#92,.T.);
#537=EDGE_CURVE('',#445,#460,#93,.T.);
#538=EDGE_CURVE('',#457,#459,#94,.T.);
#539=EDGE_CURVE('',#460,#456,#95,.T.);
#540=EDGE_CURVE('',#461,#462,#396,.F.);
#541=EDGE_CURVE('',#463,#461,#397,.F.);
#542=EDGE_CURVE('',#462,#463,#398,.F.);
#543=EDGE_CURVE('',#461,#452,#96,.T.);
#544=EDGE_CURVE('',#451,#463,#97,.T.);
#545=EDGE_CURVE('',#459,#462,#98,.T.);
#546=EDGE_CURVE('',#463,#458,#99,.T.);
#547=EDGE_CURVE('',#462,#454,#100,.T.);
#548=EDGE_CURVE('',#455,#461,#101,.T.);
#549=EDGE_CURVE('',#440,#449,#102,.T.);
#550=EDGE_CURVE('',#452,#441,#103,.T.);
#551=EDGE_CURVE('',#448,#439,#104,.T.);
#552=EDGE_CURVE('',#442,#447,#105,.T.);
#553=EDGE_CURVE('',#447,#456,#106,.T.);
#554=EDGE_CURVE('',#464,#465,#107,.T.);
#555=EDGE_CURVE('',#466,#464,#108,.T.);
#556=EDGE_CURVE('',#467,#466,#109,.T.);
#557=EDGE_CURVE('',#465,#467,#110,.T.);
#558=EDGE_CURVE('',#468,#464,#399,.F.);
#559=EDGE_CURVE('',#469,#468,#400,.F.);
#560=EDGE_CURVE('',#464,#469,#401,.F.);
#561=EDGE_CURVE('',#470,#471,#402,.T.);
#562=EDGE_CURVE('',#471,#469,#111,.T.);
#563=EDGE_CURVE('',#468,#470,#112,.T.);
#564=EDGE_CURVE('',#472,#466,#403,.F.);
#565=EDGE_CURVE('',#473,#472,#404,.F.);
#566=EDGE_CURVE('',#466,#473,#405,.F.);
#567=EDGE_CURVE('',#474,#475,#406,.T.);
#568=EDGE_CURVE('',#475,#473,#113,.T.);
#569=EDGE_CURVE('',#472,#474,#114,.T.);
#570=EDGE_CURVE('',#476,#465,#407,.F.);
#571=EDGE_CURVE('',#477,#476,#408,.F.);
#572=EDGE_CURVE('',#465,#477,#409,.F.);
#573=EDGE_CURVE('',#478,#479,#410,.T.);
#574=EDGE_CURVE('',#479,#477,#115,.T.);
#575=EDGE_CURVE('',#476,#478,#116,.T.);
#576=EDGE_CURVE('',#477,#468,#117,.T.);
#577=EDGE_CURVE('',#480,#467,#411,.F.);
#578=EDGE_CURVE('',#481,#480,#412,.F.);
#579=EDGE_CURVE('',#467,#481,#413,.F.);
#580=EDGE_CURVE('',#482,#483,#414,.T.);
#581=EDGE_CURVE('',#483,#481,#118,.T.);
#582=EDGE_CURVE('',#480,#482,#119,.T.);
#583=EDGE_CURVE('',#481,#476,#120,.T.);
#584=EDGE_CURVE('',#473,#480,#121,.T.);
#585=EDGE_CURVE('',#469,#472,#122,.T.);
#586=EDGE_CURVE('',#470,#479,#123,.T.);
#587=EDGE_CURVE('',#478,#483,#124,.T.);
#588=EDGE_CURVE('',#482,#475,#125,.T.);
#589=EDGE_CURVE('',#474,#471,#126,.T.);
#590=EDGE_CURVE('',#484,#484,#415,.T.);
#591=EDGE_CURVE('',#484,#485,#127,.T.);
#592=EDGE_CURVE('',#485,#485,#416,.T.);
#593=EDGE_CURVE('',#486,#486,#417,.T.);
#594=EDGE_CURVE('',#486,#487,#128,.T.);
#595=EDGE_CURVE('',#487,#487,#418,.T.);
#596=EDGE_CURVE('',#488,#488,#419,.T.);
#597=EDGE_CURVE('',#488,#489,#129,.T.);
#598=EDGE_CURVE('',#489,#489,#420,.T.);
#599=EDGE_CURVE('',#490,#490,#421,.T.);
#600=EDGE_CURVE('',#490,#491,#130,.T.);
#601=EDGE_CURVE('',#491,#491,#422,.T.);
#602=EDGE_CURVE('',#492,#492,#423,.T.);
#603=EDGE_CURVE('',#492,#493,#131,.T.);
#604=EDGE_CURVE('',#493,#493,#424,.T.);
#605=EDGE_CURVE('',#494,#494,#425,.T.);
#606=EDGE_CURVE('',#494,#495,#132,.T.);
#607=EDGE_CURVE('',#495,#495,#426,.T.);
#608=EDGE_CURVE('',#496,#496,#427,.T.);
#609=EDGE_CURVE('',#496,#497,#133,.T.);
#610=EDGE_CURVE('',#497,#497,#428,.T.);
#611=EDGE_CURVE('',#498,#498,#429,.T.);
#612=EDGE_CURVE('',#498,#499,#134,.T.);
#613=EDGE_CURVE('',#499,#499,#430,.T.);
#614=EDGE_CURVE('',#500,#500,#431,.T.);
#615=EDGE_CURVE('',#500,#501,#135,.T.);
#616=EDGE_CURVE('',#501,#501,#432,.T.);
#617=EDGE_CURVE('',#502,#502,#433,.T.);
#618=EDGE_CURVE('',#502,#503,#136,.T.);
#619=EDGE_CURVE('',#503,#503,#434,.T.);
#620=EDGE_CURVE('',#504,#504,#435,.T.);
#621=EDGE_CURVE('',#504,#505,#137,.T.);
#622=EDGE_CURVE('',#505,#505,#436,.T.);
#623=EDGE_CURVE('',#506,#506,#437,.T.);
#624=EDGE_CURVE('',#506,#507,#138,.T.);
#625=EDGE_CURVE('',#507,#507,#438,.T.);
#626=ORIENTED_EDGE('',*,*,#508,.T.);
#627=ORIENTED_EDGE('',*,*,#509,.F.);
#628=ORIENTED_EDGE('',*,*,#510,.F.);
#629=ORIENTED_EDGE('',*,*,#511,.F.);
#630=ORIENTED_EDGE('',*,*,#512,.T.);
#631=ORIENTED_EDGE('',*,*,#513,.F.);
#632=ORIENTED_EDGE('',*,*,#514,.F.);
#633=ORIENTED_EDGE('',*,*,#515,.F.);
#634=ORIENTED_EDGE('',*,*,#516,.T.);
#635=ORIENTED_EDGE('',*,*,#513,.T.);
#636=ORIENTED_EDGE('',*,*,#517,.T.);
#637=ORIENTED_EDGE('',*,*,#518,.T.);
#638=ORIENTED_EDGE('',*,*,#519,.T.);
#639=ORIENTED_EDGE('',*,*,#520,.F.);
#640=ORIENTED_EDGE('',*,*,#521,.F.);
#641=ORIENTED_EDGE('',*,*,#522,.F.);
#642=ORIENTED_EDGE('',*,*,#520,.T.);
#643=ORIENTED_EDGE('',*,*,#523,.T.);
#644=ORIENTED_EDGE('',*,*,#515,.T.);
#645=ORIENTED_EDGE('',*,*,#524,.T.);
#646=ORIENTED_EDGE('',*,*,#525,.F.);
#647=ORIENTED_EDGE('',*,*,#526,.F.);
#648=ORIENTED_EDGE('',*,*,#527,.F.);
#649=ORIENTED_EDGE('',*,*,#526,.T.);
#650=ORIENTED_EDGE('',*,*,#528,.T.);
#651=ORIENTED_EDGE('',*,*,#510,.T.);
#652=ORIENTED_EDGE('',*,*,#529,.T.);
#653=ORIENTED_EDGE('',*,*,#530,.T.);
#654=ORIENTED_EDGE('',*,*,#525,.T.);
#655=ORIENTED_EDGE('',*,*,#531,.T.);
#656=ORIENTED_EDGE('',*,*,#532,.T.);
#657=ORIENTED_EDGE('',*,*,#533,.F.);
#658=ORIENTED_EDGE('',*,*,#534,.F.);
#659=ORIENTED_EDGE('',*,*,#535,.F.);
#660=ORIENTED_EDGE('',*,*,#534,.T.);
#661=ORIENTED_EDGE('',*,*,#536,.T.);
#662=ORIENTED_EDGE('',*,*,#514,.T.);
#663=ORIENTED_EDGE('',*,*,#537,.T.);
#664=ORIENTED_EDGE('',*,*,#538,.T.);
#665=ORIENTED_EDGE('',*,*,#535,.T.);
#666=ORIENTED_EDGE('',*,*,#539,.T.);
#667=ORIENTED_EDGE('',*,*,#532,.F.);
#668=ORIENTED_EDGE('',*,*,#540,.F.);
#669=ORIENTED_EDGE('',*,*,#541,.F.);
#670=ORIENTED_EDGE('',*,*,#542,.F.);
#671=ORIENTED_EDGE('',*,*,#541,.T.);
#672=ORIENTED_EDGE('',*,*,#543,.T.);
#673=ORIENTED_EDGE('',*,*,#521,.T.);
#674=ORIENTED_EDGE('',*,*,#544,.T.);
#675=ORIENTED_EDGE('',*,*,#533,.T.);
#676=ORIENTED_EDGE('',*,*,#545,.T.);
#677=ORIENTED_EDGE('',*,*,#542,.T.);
#678=ORIENTED_EDGE('',*,*,#546,.T.);
#679=ORIENTED_EDGE('',*,*,#540,.T.);
#680=ORIENTED_EDGE('',*,*,#547,.T.);
#681=ORIENTED_EDGE('',*,*,#527,.T.);
#682=ORIENTED_EDGE('',*,*,#548,.T.);
#683=ORIENTED_EDGE('',*,*,#509,.T.);
#684=ORIENTED_EDGE('',*,*,#549,.T.);
#685=ORIENTED_EDGE('',*,*,#522,.T.);
#686=ORIENTED_EDGE('',*,*,#550,.T.);
#687=ORIENTED_EDGE('',*,*,#551,.T.);
#688=ORIENTED_EDGE('',*,*,#511,.T.);
#689=ORIENTED_EDGE('',*,*,#552,.T.);
#690=ORIENTED_EDGE('',*,*,#518,.F.);
#691=ORIENTED_EDGE('',*,*,#552,.F.);
#692=ORIENTED_EDGE('',*,*,#528,.F.);
#693=ORIENTED_EDGE('',*,*,#530,.F.);
#694=ORIENTED_EDGE('',*,*,#553,.F.);
#695=ORIENTED_EDGE('',*,*,#554,.F.);
#696=ORIENTED_EDGE('',*,*,#555,.F.);
#697=ORIENTED_EDGE('',*,*,#556,.F.);
#698=ORIENTED_EDGE('',*,*,#557,.F.);
#699=ORIENTED_EDGE('',*,*,#519,.F.);
#700=ORIENTED_EDGE('',*,*,#549,.F.);
#701=ORIENTED_EDGE('',*,*,#508,.F.);
#702=ORIENTED_EDGE('',*,*,#551,.F.);
#703=ORIENTED_EDGE('',*,*,#517,.F.);
#704=ORIENTED_EDGE('',*,*,#512,.F.);
#705=ORIENTED_EDGE('',*,*,#523,.F.);
#706=ORIENTED_EDGE('',*,*,#524,.F.);
#707=ORIENTED_EDGE('',*,*,#536,.F.);
#708=ORIENTED_EDGE('',*,*,#546,.F.);
#709=ORIENTED_EDGE('',*,*,#544,.F.);
#710=ORIENTED_EDGE('',*,*,#531,.F.);
#711=ORIENTED_EDGE('',*,*,#547,.F.);
#712=ORIENTED_EDGE('',*,*,#545,.F.);
#713=ORIENTED_EDGE('',*,*,#538,.F.);
#714=ORIENTED_EDGE('',*,*,#543,.F.);
#715=ORIENTED_EDGE('',*,*,#548,.F.);
#716=ORIENTED_EDGE('',*,*,#529,.F.);
#717=ORIENTED_EDGE('',*,*,#550,.F.);
#718=ORIENTED_EDGE('',*,*,#558,.F.);
#719=ORIENTED_EDGE('',*,*,#559,.F.);
#720=ORIENTED_EDGE('',*,*,#560,.F.);
#721=ORIENTED_EDGE('',*,*,#561,.T.);
#722=ORIENTED_EDGE('',*,*,#562,.T.);
#723=ORIENTED_EDGE('',*,*,#559,.T.);
#724=ORIENTED_EDGE('',*,*,#563,.T.);
#725=ORIENTED_EDGE('',*,*,#564,.F.);
#726=ORIENTED_EDGE('',*,*,#565,.F.);
#727=ORIENTED_EDGE('',*,*,#566,.F.);
#728=ORIENTED_EDGE('',*,*,#567,.T.);
#729=ORIENTED_EDGE('',*,*,#568,.T.);
#730=ORIENTED_EDGE('',*,*,#565,.T.);
#731=ORIENTED_EDGE('',*,*,#569,.T.);
#732=ORIENTED_EDGE('',*,*,#570,.F.);
#733=ORIENTED_EDGE('',*,*,#571,.F.);
#734=ORIENTED_EDGE('',*,*,#572,.F.);
#735=ORIENTED_EDGE('',*,*,#573,.T.);
#736=ORIENTED_EDGE('',*,*,#574,.T.);
#737=ORIENTED_EDGE('',*,*,#571,.T.);
#738=ORIENTED_EDGE('',*,*,#575,.T.);
#739=ORIENTED_EDGE('',*,*,#558,.T.);
#740=ORIENTED_EDGE('',*,*,#554,.T.);
#741=ORIENTED_EDGE('',*,*,#572,.T.);
#742=ORIENTED_EDGE('',*,*,#576,.T.);
#743=ORIENTED_EDGE('',*,*,#577,.F.);
#744=ORIENTED_EDGE('',*,*,#578,.F.);
#745=ORIENTED_EDGE('',*,*,#579,.F.);
#746=ORIENTED_EDGE('',*,*,#580,.T.);
#747=ORIENTED_EDGE('',*,*,#581,.T.);
#748=ORIENTED_EDGE('',*,*,#578,.T.);
#749=ORIENTED_EDGE('',*,*,#582,.T.);
#750=ORIENTED_EDGE('',*,*,#570,.T.);
#751=ORIENTED_EDGE('',*,*,#557,.T.);
#752=ORIENTED_EDGE('',*,*,#579,.T.);
#753=ORIENTED_EDGE('',*,*,#583,.T.);
#754=ORIENTED_EDGE('',*,*,#577,.T.);
#755=ORIENTED_EDGE('',*,*,#556,.T.);
#756=ORIENTED_EDGE('',*,*,#566,.T.);
#757=ORIENTED_EDGE('',*,*,#584,.T.);
#758=ORIENTED_EDGE('',*,*,#564,.T.);
#759=ORIENTED_EDGE('',*,*,#555,.T.);
#760=ORIENTED_EDGE('',*,*,#560,.T.);
#761=ORIENTED_EDGE('',*,*,#585,.T.);
#762=ORIENTED_EDGE('',*,*,#563,.F.);
#763=ORIENTED_EDGE('',*,*,#576,.F.);
#764=ORIENTED_EDGE('',*,*,#574,.F.);
#765=ORIENTED_EDGE('',*,*,#586,.F.);
#766=ORIENTED_EDGE('',*,*,#575,.F.);
#767=ORIENTED_EDGE('',*,*,#583,.F.);
#768=ORIENTED_EDGE('',*,*,#581,.F.);
#769=ORIENTED_EDGE('',*,*,#587,.F.);
#770=ORIENTED_EDGE('',*,*,#516,.F.);
#771=ORIENTED_EDGE('',*,*,#553,.T.);
#772=ORIENTED_EDGE('',*,*,#539,.F.);
#773=ORIENTED_EDGE('',*,*,#537,.F.);
#774=ORIENTED_EDGE('',*,*,#568,.F.);
#775=ORIENTED_EDGE('',*,*,#588,.F.);
#776=ORIENTED_EDGE('',*,*,#582,.F.);
#777=ORIENTED_EDGE('',*,*,#584,.F.);
#778=ORIENTED_EDGE('',*,*,#562,.F.);
#779=ORIENTED_EDGE('',*,*,#589,.F.);
#780=ORIENTED_EDGE('',*,*,#569,.F.);
#781=ORIENTED_EDGE('',*,*,#585,.F.);
#782=ORIENTED_EDGE('',*,*,#561,.F.);
#783=ORIENTED_EDGE('',*,*,#586,.T.);
#784=ORIENTED_EDGE('',*,*,#573,.F.);
#785=ORIENTED_EDGE('',*,*,#587,.T.);
#786=ORIENTED_EDGE('',*,*,#580,.F.);
#787=ORIENTED_EDGE('',*,*,#588,.T.);
#788=ORIENTED_EDGE('',*,*,#567,.F.);
#789=ORIENTED_EDGE('',*,*,#589,.T.);
#790=ORIENTED_EDGE('',*,*,#590,.F.);
#791=ORIENTED_EDGE('',*,*,#591,.T.);
#792=ORIENTED_EDGE('',*,*,#592,.T.);
#793=ORIENTED_EDGE('',*,*,#591,.F.);
#794=ORIENTED_EDGE('',*,*,#590,.T.);
#795=ORIENTED_EDGE('',*,*,#592,.F.);
#796=ORIENTED_EDGE('',*,*,#593,.F.);
#797=ORIENTED_EDGE('',*,*,#594,.T.);
#798=ORIENTED_EDGE('',*,*,#595,.T.);
#799=ORIENTED_EDGE('',*,*,#594,.F.);
#800=ORIENTED_EDGE('',*,*,#593,.T.);
#801=ORIENTED_EDGE('',*,*,#595,.F.);
#802=ORIENTED_EDGE('',*,*,#596,.F.);
#803=ORIENTED_EDGE('',*,*,#597,.T.);
#804=ORIENTED_EDGE('',*,*,#598,.T.);
#805=ORIENTED_EDGE('',*,*,#597,.F.);
#806=ORIENTED_EDGE('',*,*,#596,.T.);
#807=ORIENTED_EDGE('',*,*,#598,.F.);
#808=ORIENTED_EDGE('',*,*,#599,.F.);
#809=ORIENTED_EDGE('',*,*,#600,.T.);
#810=ORIENTED_EDGE('',*,*,#601,.T.);
#811=ORIENTED_EDGE('',*,*,#600,.F.);
#812=ORIENTED_EDGE('',*,*,#599,.T.);
#813=ORIENTED_EDGE('',*,*,#601,.F.);
#814=ORIENTED_EDGE('',*,*,#602,.F.);
#815=ORIENTED_EDGE('',*,*,#603,.T.);
#816=ORIENTED_EDGE('',*,*,#604,.T.);
#817=ORIENTED_EDGE('',*,*,#603,.F.);
#818=ORIENTED_EDGE('',*,*,#602,.T.);
#819=ORIENTED_EDGE('',*,*,#604,.F.);
#820=ORIENTED_EDGE('',*,*,#605,.F.);
#821=ORIENTED_EDGE('',*,*,#606,.T.);
#822=ORIENTED_EDGE('',*,*,#607,.T.);
#823=ORIENTED_EDGE('',*,*,#606,.F.);
#824=ORIENTED_EDGE('',*,*,#605,.T.);
#825=ORIENTED_EDGE('',*,*,#607,.F.);
#826=ORIENTED_EDGE('',*,*,#608,.F.);
#827=ORIENTED_EDGE('',*,*,#609,.T.);
#828=ORIENTED_EDGE('',*,*,#610,.T.);
#829=ORIENTED_EDGE('',*,*,#609,.F.);
#830=ORIENTED_EDGE('',*,*,#608,.T.);
#831=ORIENTED_EDGE('',*,*,#610,.F.);
#832=ORIENTED_EDGE('',*,*,#611,.F.);
#833=ORIENTED_EDGE('',*,*,#612,.T.);
#834=ORIENTED_EDGE('',*,*,#613,.T.);
#835=ORIENTED_EDGE('',*,*,#612,.F.);
#836=ORIENTED_EDGE('',*,*,#611,.T.);
#837=ORIENTED_EDGE('',*,*,#613,.F.);
#838=ORIENTED_EDGE('',*,*,#614,.F.);
#839=ORIENTED_EDGE('',*,*,#615,.T.);
#840=ORIENTED_EDGE('',*,*,#616,.T.);
#841=ORIENTED_EDGE('',*,*,#615,.F.);
#842=ORIENTED_EDGE('',*,*,#614,.T.);
#843=ORIENTED_EDGE('',*,*,#616,.F.);
#844=ORIENTED_EDGE('',*,*,#617,.F.);
#845=ORIENTED_EDGE('',*,*,#618,.T.);
#846=ORIENTED_EDGE('',*,*,#619,.T.);
#847=ORIENTED_EDGE('',*,*,#618,.F.);
#848=ORIENTED_EDGE('',*,*,#617,.T.);
#849=ORIENTED_EDGE('',*,*,#619,.F.);
#850=ORIENTED_EDGE('',*,*,#620,.F.);
#851=ORIENTED_EDGE('',*,*,#621,.T.);
#852=ORIENTED_EDGE('',*,*,#622,.T.);
#853=ORIENTED_EDGE('',*,*,#621,.F.);
#854=ORIENTED_EDGE('',*,*,#620,.T.);
#855=ORIENTED_EDGE('',*,*,#622,.F.);
#856=ORIENTED_EDGE('',*,*,#623,.F.);
#857=ORIENTED_EDGE('',*,*,#624,.T.);
#858=ORIENTED_EDGE('',*,*,#625,.T.);
#859=ORIENTED_EDGE('',*,*,#624,.F.);
#860=ORIENTED_EDGE('',*,*,#623,.T.);
#861=ORIENTED_EDGE('',*,*,#625,.F.);
#862=TOROIDAL_SURFACE('',#967,0.999999999999999,0.499999999999998);
#863=TOROIDAL_SURFACE('',#972,0.999999999999999,0.499999999999998);
#864=TOROIDAL_SURFACE('',#979,0.999999999999999,0.499999999999998);
#865=ADVANCED_FACE('',(#225),#862,.F.);
#866=ADVANCED_FACE('',(#226),#863,.F.);
#867=ADVANCED_FACE('',(#227),#194,.F.);
#868=ADVANCED_FACE('',(#228),#864,.F.);
#869=ADVANCED_FACE('',(#229),#195,.F.);
#870=ADVANCED_FACE('',(#230),#75,.T.);
#871=ADVANCED_FACE('',(#231),#196,.T.);
#872=ADVANCED_FACE('',(#232),#197,.T.);
#873=ADVANCED_FACE('',(#233),#76,.T.);
#874=ADVANCED_FACE('',(#234),#198,.T.);
#875=ADVANCED_FACE('',(#235),#199,.T.);
#876=ADVANCED_FACE('',(#236),#77,.T.);
#877=ADVANCED_FACE('',(#237),#200,.T.);
#878=ADVANCED_FACE('',(#238),#201,.T.);
#879=ADVANCED_FACE('',(#239),#202,.T.);
#880=ADVANCED_FACE('',(#240),#203,.F.);
#881=ADVANCED_FACE('',(#241),#204,.F.);
#882=ADVANCED_FACE('',(#242),#40,.T.);
#883=ADVANCED_FACE('',(#243,#39),#41,.T.);
#884=ADVANCED_FACE('',(#244),#42,.T.);
#885=ADVANCED_FACE('',(#245),#43,.T.);
#886=ADVANCED_FACE('',(#246),#44,.T.);
#887=ADVANCED_FACE('',(#247),#78,.T.);
#888=ADVANCED_FACE('',(#248),#205,.T.);
#889=ADVANCED_FACE('',(#249),#79,.T.);
#890=ADVANCED_FACE('',(#250),#206,.T.);
#891=ADVANCED_FACE('',(#251),#80,.T.);
#892=ADVANCED_FACE('',(#252),#207,.T.);
#893=ADVANCED_FACE('',(#253),#208,.T.);
#894=ADVANCED_FACE('',(#254),#81,.T.);
#895=ADVANCED_FACE('',(#255),#209,.T.);
#896=ADVANCED_FACE('',(#256),#210,.T.);
#897=ADVANCED_FACE('',(#257),#211,.T.);
#898=ADVANCED_FACE('',(#258),#212,.T.);
#899=ADVANCED_FACE('',(#259),#45,.T.);
#900=ADVANCED_FACE('',(#260),#46,.T.);
#901=ADVANCED_FACE('',(#261),#47,.T.);
#902=ADVANCED_FACE('',(#262),#48,.T.);
#903=ADVANCED_FACE('',(#263),#49,.T.);
#904=ADVANCED_FACE('',(#264),#50,.F.);
#905=ADVANCED_FACE('',(#265),#213,.T.);
#906=ADVANCED_FACE('',(#266),#51,.T.);
#907=ADVANCED_FACE('',(#267),#52,.F.);
#908=ADVANCED_FACE('',(#268),#214,.T.);
#909=ADVANCED_FACE('',(#269),#53,.T.);
#910=ADVANCED_FACE('',(#270),#54,.F.);
#911=ADVANCED_FACE('',(#271),#215,.T.);
#912=ADVANCED_FACE('',(#272),#55,.T.);
#913=ADVANCED_FACE('',(#273),#56,.F.);
#914=ADVANCED_FACE('',(#274),#216,.T.);
#915=ADVANCED_FACE('',(#275),#57,.T.);
#916=ADVANCED_FACE('',(#276),#58,.F.);
#917=ADVANCED_FACE('',(#277),#217,.T.);
#918=ADVANCED_FACE('',(#278),#59,.T.);
#919=ADVANCED_FACE('',(#279),#60,.F.);
#920=ADVANCED_FACE('',(#280),#218,.T.);
#921=ADVANCED_FACE('',(#281),#61,.T.);
#922=ADVANCED_FACE('',(#282),#62,.F.);
#923=ADVANCED_FACE('',(#283),#219,.T.);
#924=ADVANCED_FACE('',(#284),#63,.T.);
#925=ADVANCED_FACE('',(#285),#64,.F.);
#926=ADVANCED_FACE('',(#286),#220,.T.);
#927=ADVANCED_FACE('',(#287),#65,.T.);
#928=ADVANCED_FACE('',(#288),#66,.F.);
#929=ADVANCED_FACE('',(#289),#221,.T.);
#930=ADVANCED_FACE('',(#290),#67,.T.);
#931=ADVANCED_FACE('',(#291),#68,.F.);
#932=ADVANCED_FACE('',(#292),#222,.T.);
#933=ADVANCED_FACE('',(#293),#69,.T.);
#934=ADVANCED_FACE('',(#294),#70,.F.);
#935=ADVANCED_FACE('',(#295),#223,.T.);
#936=ADVANCED_FACE('',(#296),#71,.T.);
#937=ADVANCED_FACE('',(#297),#72,.F.);
#938=ADVANCED_FACE('',(#298),#224,.T.);
#939=ADVANCED_FACE('',(#299),#73,.T.);
#940=ADVANCED_FACE('',(#300),#74,.F.);
#941=CLOSED_SHELL('',(#865,#866,#867,#868,#869,#870,#871,#872,#873,#874,
#875,#876,#877,#878,#879,#880,#881,#882,#883,#884,#885,#886,#887,#888,#889,
#890,#891,#892,#893,#894,#895,#896,#897,#898,#899,#900,#901,#902,#903,#904));
#942=CLOSED_SHELL('',(#905,#906,#907));
#943=CLOSED_SHELL('',(#908,#909,#910));
#944=CLOSED_SHELL('',(#911,#912,#913));
#945=CLOSED_SHELL('',(#914,#915,#916));
#946=CLOSED_SHELL('',(#917,#918,#919));
#947=CLOSED_SHELL('',(#920,#921,#922));
#948=CLOSED_SHELL('',(#923,#924,#925));
#949=CLOSED_SHELL('',(#926,#927,#928));
#950=CLOSED_SHELL('',(#929,#930,#931));
#951=CLOSED_SHELL('',(#932,#933,#934));
#952=CLOSED_SHELL('',(#935,#936,#937));
#953=CLOSED_SHELL('',(#938,#939,#940));
#954=DERIVED_UNIT_ELEMENT(#956,1.);
#955=DERIVED_UNIT_ELEMENT(#1710,-3.);
#956=(
MASS_UNIT()
NAMED_UNIT(*)
SI_UNIT(.KILO.,.GRAM.)
);
#957=DERIVED_UNIT((#954,#955));
#958=MEASURE_REPRESENTATION_ITEM('density measure',
POSITIVE_RATIO_MEASURE(7850.),#957);
#959=PROPERTY_DEFINITION_REPRESENTATION(#964,#961);
#960=PROPERTY_DEFINITION_REPRESENTATION(#965,#962);
#961=REPRESENTATION('material name',(#963),#1707);
#962=REPRESENTATION('density',(#958),#1707);
#963=DESCRIPTIVE_REPRESENTATION_ITEM('\X2\94A2\X0\','\X2\94A2\X0\');
#964=PROPERTY_DEFINITION('material property','material name',#1717);
#965=PROPERTY_DEFINITION('material property','density of part',#1717);
#966=AXIS2_PLACEMENT_3D('',#1441,#1106,#1107);
#967=AXIS2_PLACEMENT_3D('',#1442,#1108,#1109);
#968=AXIS2_PLACEMENT_3D('',#1445,#1110,#1111);
#969=AXIS2_PLACEMENT_3D('',#1447,#1112,#1113);
#970=AXIS2_PLACEMENT_3D('',#1449,#1114,#1115);
#971=AXIS2_PLACEMENT_3D('',#1450,#1116,#1117);
#972=AXIS2_PLACEMENT_3D('',#1451,#1118,#1119);
#973=AXIS2_PLACEMENT_3D('',#1454,#1120,#1121);
#974=AXIS2_PLACEMENT_3D('',#1456,#1122,#1123);
#975=AXIS2_PLACEMENT_3D('',#1458,#1124,#1125);
#976=AXIS2_PLACEMENT_3D('',#1459,#1126,#1127);
#977=AXIS2_PLACEMENT_3D('',#1460,#1128,#1129);
#978=AXIS2_PLACEMENT_3D('',#1465,#1132,#1133);
#979=AXIS2_PLACEMENT_3D('',#1466,#1134,#1135);
#980=AXIS2_PLACEMENT_3D('',#1469,#1136,#1137);
#981=AXIS2_PLACEMENT_3D('',#1471,#1138,#1139);
#982=AXIS2_PLACEMENT_3D('',#1473,#1140,#1141);
#983=AXIS2_PLACEMENT_3D('',#1474,#1142,#1143);
#984=AXIS2_PLACEMENT_3D('',#1475,#1144,#1145);
#985=AXIS2_PLACEMENT_3D('',#1478,#1148,#1149);
#986=AXIS2_PLACEMENT_3D('',#1481,#1150,#1151);
#987=AXIS2_PLACEMENT_3D('',#1483,#1152,#1153);
#988=AXIS2_PLACEMENT_3D('',#1484,#1154,#1155);
#989=AXIS2_PLACEMENT_3D('',#1485,#1156,#1157);
#990=AXIS2_PLACEMENT_3D('',#1488,#1160,#1161);
#991=AXIS2_PLACEMENT_3D('',#1493,#1164,#1165);
#992=AXIS2_PLACEMENT_3D('',#1494,#1166,#1167);
#993=AXIS2_PLACEMENT_3D('',#1497,#1168,#1169);
#994=AXIS2_PLACEMENT_3D('',#1499,#1170,#1171);
#995=AXIS2_PLACEMENT_3D('',#1500,#1172,#1173);
#996=AXIS2_PLACEMENT_3D('',#1501,#1174,#1175);
#997=AXIS2_PLACEMENT_3D('',#1504,#1178,#1179);
#998=AXIS2_PLACEMENT_3D('',#1507,#1182,#1183);
#999=AXIS2_PLACEMENT_3D('',#1510,#1184,#1185);
#1000=AXIS2_PLACEMENT_3D('',#1512,#1186,#1187);
#1001=AXIS2_PLACEMENT_3D('',#1513,#1188,#1189);
#1002=AXIS2_PLACEMENT_3D('',#1514,#1190,#1191);
#1003=AXIS2_PLACEMENT_3D('',#1517,#1194,#1195);
#1004=AXIS2_PLACEMENT_3D('',#1520,#1198,#1199);
#1005=AXIS2_PLACEMENT_3D('',#1523,#1202,#1203);
#1006=AXIS2_PLACEMENT_3D('',#1526,#1206,#1207);
#1007=AXIS2_PLACEMENT_3D('',#1529,#1210,#1211);
#1008=AXIS2_PLACEMENT_3D('',#1531,#1213,#1214);
#1009=AXIS2_PLACEMENT_3D('',#1540,#1219,#1220);
#1010=AXIS2_PLACEMENT_3D('',#1541,#1221,#1222);
#1011=AXIS2_PLACEMENT_3D('',#1542,#1223,#1224);
#1012=AXIS2_PLACEMENT_3D('',#1543,#1225,#1226);
#1013=AXIS2_PLACEMENT_3D('',#1545,#1227,#1228);
#1014=AXIS2_PLACEMENT_3D('',#1547,#1229,#1230);
#1015=AXIS2_PLACEMENT_3D('',#1548,#1231,#1232);
#1016=AXIS2_PLACEMENT_3D('',#1549,#1233,#1234);
#1017=AXIS2_PLACEMENT_3D('',#1552,#1235,#1236);
#1018=AXIS2_PLACEMENT_3D('',#1555,#1239,#1240);
#1019=AXIS2_PLACEMENT_3D('',#1557,#1241,#1242);
#1020=AXIS2_PLACEMENT_3D('',#1559,#1243,#1244);
#1021=AXIS2_PLACEMENT_3D('',#1560,#1245,#1246);
#1022=AXIS2_PLACEMENT_3D('',#1561,#1247,#1248);
#1023=AXIS2_PLACEMENT_3D('',#1564,#1249,#1250);
#1024=AXIS2_PLACEMENT_3D('',#1567,#1253,#1254);
#1025=AXIS2_PLACEMENT_3D('',#1569,#1255,#1256);
#1026=AXIS2_PLACEMENT_3D('',#1571,#1257,#1258);
#1027=AXIS2_PLACEMENT_3D('',#1572,#1259,#1260);
#1028=AXIS2_PLACEMENT_3D('',#1573,#1261,#1262);
#1029=AXIS2_PLACEMENT_3D('',#1576,#1263,#1264);
#1030=AXIS2_PLACEMENT_3D('',#1579,#1267,#1268);
#1031=AXIS2_PLACEMENT_3D('',#1581,#1270,#1271);
#1032=AXIS2_PLACEMENT_3D('',#1583,#1272,#1273);
#1033=AXIS2_PLACEMENT_3D('',#1585,#1274,#1275);
#1034=AXIS2_PLACEMENT_3D('',#1586,#1276,#1277);
#1035=AXIS2_PLACEMENT_3D('',#1587,#1278,#1279);
#1036=AXIS2_PLACEMENT_3D('',#1590,#1280,#1281);
#1037=AXIS2_PLACEMENT_3D('',#1593,#1284,#1285);
#1038=AXIS2_PLACEMENT_3D('',#1595,#1287,#1288);
#1039=AXIS2_PLACEMENT_3D('',#1597,#1290,#1291);
#1040=AXIS2_PLACEMENT_3D('',#1599,#1293,#1294);
#1041=AXIS2_PLACEMENT_3D('',#1601,#1296,#1297);
#1042=AXIS2_PLACEMENT_3D('',#1603,#1299,#1300);
#1043=AXIS2_PLACEMENT_3D('',#1604,#1301,#1302);
#1044=AXIS2_PLACEMENT_3D('',#1606,#1304,#1305);
#1045=AXIS2_PLACEMENT_3D('',#1608,#1307,#1308);
#1046=AXIS2_PLACEMENT_3D('',#1609,#1309,#1310);
#1047=AXIS2_PLACEMENT_3D('',#1611,#1311,#1312);
#1048=AXIS2_PLACEMENT_3D('',#1614,#1314,#1315);
#1049=AXIS2_PLACEMENT_3D('',#1615,#1316,#1317);
#1050=AXIS2_PLACEMENT_3D('',#1616,#1318,#1319);
#1051=AXIS2_PLACEMENT_3D('',#1617,#1320,#1321);
#1052=AXIS2_PLACEMENT_3D('',#1619,#1322,#1323);
#1053=AXIS2_PLACEMENT_3D('',#1622,#1325,#1326);
#1054=AXIS2_PLACEMENT_3D('',#1623,#1327,#1328);
#1055=AXIS2_PLACEMENT_3D('',#1624,#1329,#1330);
#1056=AXIS2_PLACEMENT_3D('',#1625,#1331,#1332);
#1057=AXIS2_PLACEMENT_3D('',#1627,#1333,#1334);
#1058=AXIS2_PLACEMENT_3D('',#1630,#1336,#1337);
#1059=AXIS2_PLACEMENT_3D('',#1631,#1338,#1339);
#1060=AXIS2_PLACEMENT_3D('',#1632,#1340,#1341);
#1061=AXIS2_PLACEMENT_3D('',#1633,#1342,#1343);
#1062=AXIS2_PLACEMENT_3D('',#1635,#1344,#1345);
#1063=AXIS2_PLACEMENT_3D('',#1638,#1347,#1348);
#1064=AXIS2_PLACEMENT_3D('',#1639,#1349,#1350);
#1065=AXIS2_PLACEMENT_3D('',#1640,#1351,#1352);
#1066=AXIS2_PLACEMENT_3D('',#1641,#1353,#1354);
#1067=AXIS2_PLACEMENT_3D('',#1643,#1355,#1356);
#1068=AXIS2_PLACEMENT_3D('',#1646,#1358,#1359);
#1069=AXIS2_PLACEMENT_3D('',#1647,#1360,#1361);
#1070=AXIS2_PLACEMENT_3D('',#1648,#1362,#1363);
#1071=AXIS2_PLACEMENT_3D('',#1649,#1364,#1365);
#1072=AXIS2_PLACEMENT_3D('',#1651,#1366,#1367);
#1073=AXIS2_PLACEMENT_3D('',#1654,#1369,#1370);
#1074=AXIS2_PLACEMENT_3D('',#1655,#1371,#1372);
#1075=AXIS2_PLACEMENT_3D('',#1656,#1373,#1374);
#1076=AXIS2_PLACEMENT_3D('',#1657,#1375,#1376);
#1077=AXIS2_PLACEMENT_3D('',#1659,#1377,#1378);
#1078=AXIS2_PLACEMENT_3D('',#1662,#1380,#1381);
#1079=AXIS2_PLACEMENT_3D('',#1663,#1382,#1383);
#1080=AXIS2_PLACEMENT_3D('',#1664,#1384,#1385);
#1081=AXIS2_PLACEMENT_3D('',#1665,#1386,#1387);
#1082=AXIS2_PLACEMENT_3D('',#1667,#1388,#1389);
#1083=AXIS2_PLACEMENT_3D('',#1670,#1391,#1392);
#1084=AXIS2_PLACEMENT_3D('',#1671,#1393,#1394);
#1085=AXIS2_PLACEMENT_3D('',#1672,#1395,#1396);
#1086=AXIS2_PLACEMENT_3D('',#1673,#1397,#1398);
#1087=AXIS2_PLACEMENT_3D('',#1675,#1399,#1400);
#1088=AXIS2_PLACEMENT_3D('',#1678,#1402,#1403);
#1089=AXIS2_PLACEMENT_3D('',#1679,#1404,#1405);
#1090=AXIS2_PLACEMENT_3D('',#1680,#1406,#1407);
#1091=AXIS2_PLACEMENT_3D('',#1681,#1408,#1409);
#1092=AXIS2_PLACEMENT_3D('',#1683,#1410,#1411);
#1093=AXIS2_PLACEMENT_3D('',#1686,#1413,#1414);
#1094=AXIS2_PLACEMENT_3D('',#1687,#1415,#1416);
#1095=AXIS2_PLACEMENT_3D('',#1688,#1417,#1418);
#1096=AXIS2_PLACEMENT_3D('',#1689,#1419,#1420);
#1097=AXIS2_PLACEMENT_3D('',#1691,#1421,#1422);
#1098=AXIS2_PLACEMENT_3D('',#1694,#1424,#1425);
#1099=AXIS2_PLACEMENT_3D('',#1695,#1426,#1427);
#1100=AXIS2_PLACEMENT_3D('',#1696,#1428,#1429);
#1101=AXIS2_PLACEMENT_3D('',#1697,#1430,#1431);
#1102=AXIS2_PLACEMENT_3D('',#1699,#1432,#1433);
#1103=AXIS2_PLACEMENT_3D('',#1702,#1435,#1436);
#1104=AXIS2_PLACEMENT_3D('',#1703,#1437,#1438);
#1105=AXIS2_PLACEMENT_3D('',#1704,#1439,#1440);
#1106=DIRECTION('axis',(0.,0.,1.));
#1107=DIRECTION('refdir',(1.,0.,0.));
#1108=DIRECTION('center_axis',(0.,0.,1.));
#1109=DIRECTION('ref_axis',(1.,0.,0.));
#1110=DIRECTION('center_axis',(0.,0.,1.));
#1111=DIRECTION('ref_axis',(-0.707106781186548,0.707106781186548,0.));
#1112=DIRECTION('center_axis',(0.,1.,0.));
#1113=DIRECTION('ref_axis',(1.,0.,0.));
#1114=DIRECTION('center_axis',(0.,0.,-1.));
#1115=DIRECTION('ref_axis',(0.,1.,0.));
#1116=DIRECTION('center_axis',(-1.,0.,0.));
#1117=DIRECTION('ref_axis',(0.,0.,-1.));
#1118=DIRECTION('center_axis',(0.,0.,1.));
#1119=DIRECTION('ref_axis',(1.,0.,0.));
#1120=DIRECTION('center_axis',(0.,0.,1.));
#1121=DIRECTION('ref_axis',(0.707106781186548,-0.707106781186548,0.));
#1122=DIRECTION('center_axis',(0.,-1.,0.));
#1123=DIRECTION('ref_axis',(-1.,0.,0.));
#1124=DIRECTION('center_axis',(0.,0.,-1.));
#1125=DIRECTION('ref_axis',(0.,-1.,0.));
#1126=DIRECTION('center_axis',(1.,0.,0.));
#1127=DIRECTION('ref_axis',(0.,0.,-1.));
#1128=DIRECTION('center_axis',(0.,-1.,0.));
#1129=DIRECTION('ref_axis',(-0.707106781186551,0.,-0.707106781186544));
#1130=DIRECTION('',(0.,-1.,0.));
#1131=DIRECTION('',(0.,1.,0.));
#1132=DIRECTION('center_axis',(-0.707106781186546,0.707106781186549,3.14018491736757E-15));
#1133=DIRECTION('ref_axis',(0.707106781186549,0.707106781186546,-3.14018491736758E-15));
#1134=DIRECTION('center_axis',(0.,0.,1.));
#1135=DIRECTION('ref_axis',(1.,0.,0.));
#1136=DIRECTION('center_axis',(0.,0.,1.));
#1137=DIRECTION('ref_axis',(-0.707106781186548,-0.707106781186548,0.));
#1138=DIRECTION('center_axis',(-1.,0.,0.));
#1139=DIRECTION('ref_axis',(0.,1.,0.));
#1140=DIRECTION('center_axis',(0.,0.,-1.));
#1141=DIRECTION('ref_axis',(-1.,0.,0.));
#1142=DIRECTION('center_axis',(0.,-1.,0.));
#1143=DIRECTION('ref_axis',(0.,0.,-1.));
#1144=DIRECTION('center_axis',(-1.,0.,0.));
#1145=DIRECTION('ref_axis',(0.,0.707106781186551,-0.707106781186544));
#1146=DIRECTION('',(1.,0.,0.));
#1147=DIRECTION('',(-1.,0.,0.));
#1148=DIRECTION('center_axis',(-0.408248290463862,-0.816496580927727,0.408248290463862));
#1149=DIRECTION('ref_axis',(-0.577350269189626,0.577350269189626,0.577350269189626));
#1150=DIRECTION('center_axis',(-1.,0.,0.));
#1151=DIRECTION('ref_axis',(0.,1.,0.));
#1152=DIRECTION('center_axis',(0.,0.,1.));
#1153=DIRECTION('ref_axis',(-1.,0.,0.));
#1154=DIRECTION('center_axis',(4.44089209850062E-15,1.,0.));
#1155=DIRECTION('ref_axis',(0.,0.,1.));
#1156=DIRECTION('center_axis',(0.,0.,1.));
#1157=DIRECTION('ref_axis',(-0.707106781186548,0.707106781186548,0.));
#1158=DIRECTION('',(0.,0.,-1.));
#1159=DIRECTION('',(0.,0.,1.));
#1160=DIRECTION('center_axis',(-1.,0.,0.));
#1161=DIRECTION('ref_axis',(0.,0.707106781186551,0.707106781186544));
#1162=DIRECTION('',(-1.,0.,0.));
#1163=DIRECTION('',(1.,0.,0.));
#1164=DIRECTION('center_axis',(-0.707106781186548,0.707106781186548,-3.14018491736756E-15));
#1165=DIRECTION('ref_axis',(0.707106781186547,0.707106781186547,-3.14018491736756E-15));
#1166=DIRECTION('center_axis',(-0.408248290463862,-0.816496580927727,-0.408248290463862));
#1167=DIRECTION('ref_axis',(0.577350269189626,-0.577350269189626,0.577350269189626));
#1168=DIRECTION('center_axis',(1.,0.,0.));
#1169=DIRECTION('ref_axis',(0.,-1.,0.));
#1170=DIRECTION('center_axis',(0.,0.,1.));
#1171=DIRECTION('ref_axis',(1.,0.,0.));
#1172=DIRECTION('center_axis',(-4.44089209850062E-15,-1.,0.));
#1173=DIRECTION('ref_axis',(0.,0.,1.));
#1174=DIRECTION('center_axis',(0.,0.,1.));
#1175=DIRECTION('ref_axis',(0.707106781186548,-0.707106781186548,0.));
#1176=DIRECTION('',(0.,0.,-1.));
#1177=DIRECTION('',(0.,0.,1.));
#1178=DIRECTION('center_axis',(0.,1.,0.));
#1179=DIRECTION('ref_axis',(0.707106781186551,0.,0.707106781186544));
#1180=DIRECTION('',(0.,-1.,0.));
#1181=DIRECTION('',(0.,1.,0.));
#1182=DIRECTION('center_axis',(0.408248290463862,-0.816496580927727,-0.408248290463862));
#1183=DIRECTION('ref_axis',(-0.577350269189625,-0.577350269189628,0.577350269189625));
#1184=DIRECTION('center_axis',(0.,-1.,0.));
#1185=DIRECTION('ref_axis',(-1.,0.,0.));
#1186=DIRECTION('center_axis',(0.,0.,1.));
#1187=DIRECTION('ref_axis',(0.,-1.,0.));
#1188=DIRECTION('center_axis',(-1.,4.44089209850062E-15,0.));
#1189=DIRECTION('ref_axis',(0.,0.,1.));
#1190=DIRECTION('center_axis',(0.,0.,1.));
#1191=DIRECTION('ref_axis',(-0.707106781186548,-0.707106781186548,0.));
#1192=DIRECTION('',(0.,0.,-1.));
#1193=DIRECTION('',(0.,0.,1.));
#1194=DIRECTION('center_axis',(1.,0.,0.));
#1195=DIRECTION('ref_axis',(0.,-0.707106781186551,0.707106781186544));
#1196=DIRECTION('',(-1.,0.,0.));
#1197=DIRECTION('',(1.,0.,0.));
#1198=DIRECTION('center_axis',(0.,-1.,0.));
#1199=DIRECTION('ref_axis',(-0.707106781186551,0.,0.707106781186544));
#1200=DIRECTION('',(0.,1.,0.));
#1201=DIRECTION('',(0.,-1.,0.));
#1202=DIRECTION('center_axis',(0.,1.,0.));
#1203=DIRECTION('ref_axis',(0.707106781186551,0.,-0.707106781186544));
#1204=DIRECTION('',(0.,-1.,0.));
#1205=DIRECTION('',(0.,1.,0.));
#1206=DIRECTION('center_axis',(1.,0.,0.));
#1207=DIRECTION('ref_axis',(0.,-0.707106781186551,-0.707106781186544));
#1208=DIRECTION('',(-1.,0.,0.));
#1209=DIRECTION('',(1.,0.,0.));
#1210=DIRECTION('center_axis',(0.,1.,0.));
#1211=DIRECTION('ref_axis',(-1.,0.,0.));
#1212=DIRECTION('',(0.,0.,1.));
#1213=DIRECTION('center_axis',(0.,0.,1.));
#1214=DIRECTION('ref_axis',(1.,0.,0.));
#1215=DIRECTION('',(0.,-1.,0.));
#1216=DIRECTION('',(1.,0.,0.));
#1217=DIRECTION('',(0.,1.,0.));
#1218=DIRECTION('',(-1.,0.,0.));
#1219=DIRECTION('center_axis',(0.,-1.,0.));
#1220=DIRECTION('ref_axis',(1.,0.,0.));
#1221=DIRECTION('center_axis',(0.,0.,1.));
#1222=DIRECTION('ref_axis',(1.,0.,0.));
#1223=DIRECTION('center_axis',(-1.,0.,0.));
#1224=DIRECTION('ref_axis',(0.,-1.,0.));
#1225=DIRECTION('center_axis',(0.408248290463861,-0.816496580927728,0.408248290463861));
#1226=DIRECTION('ref_axis',(0.577350269189626,0.577350269189626,0.577350269189626));
#1227=DIRECTION('center_axis',(0.,1.,0.));
#1228=DIRECTION('ref_axis',(1.,0.,0.));
#1229=DIRECTION('center_axis',(0.,0.,1.));
#1230=DIRECTION('ref_axis',(0.,1.,0.));
#1231=DIRECTION('center_axis',(1.,0.,0.));
#1232=DIRECTION('ref_axis',(0.,0.,1.));
#1233=DIRECTION('center_axis',(0.,0.,1.));
#1234=DIRECTION('ref_axis',(0.707106781186548,0.707106781186548,0.));
#1235=DIRECTION('center_axis',(0.,0.,1.));
#1236=DIRECTION('ref_axis',(0.707106781186548,0.707106781186548,0.));
#1237=DIRECTION('',(0.,0.,1.));
#1238=DIRECTION('',(0.,0.,-1.));
#1239=DIRECTION('center_axis',(-0.408248290463862,-0.816496580927724,0.408248290463869));
#1240=DIRECTION('ref_axis',(-0.577350269189626,0.577350269189626,0.577350269189626));
#1241=DIRECTION('center_axis',(-1.,0.,0.));
#1242=DIRECTION('ref_axis',(0.,1.,0.));
#1243=DIRECTION('center_axis',(0.,0.,1.));
#1244=DIRECTION('ref_axis',(-1.,0.,0.));
#1245=DIRECTION('center_axis',(0.,1.,0.));
#1246=DIRECTION('ref_axis',(0.,0.,1.));
#1247=DIRECTION('center_axis',(0.,0.,1.));
#1248=DIRECTION('ref_axis',(-0.707106781186548,0.707106781186548,0.));
#1249=DIRECTION('center_axis',(0.,0.,1.));
#1250=DIRECTION('ref_axis',(-0.707106781186548,0.707106781186548,0.));
#1251=DIRECTION('',(0.,0.,1.));
#1252=DIRECTION('',(0.,0.,-1.));
#1253=DIRECTION('center_axis',(-0.408248290463862,-0.816496580927724,-0.408248290463869));
#1254=DIRECTION('ref_axis',(0.577350269189626,-0.577350269189626,0.577350269189626));
#1255=DIRECTION('center_axis',(1.,0.,0.));
#1256=DIRECTION('ref_axis',(0.,-1.,0.));
#1257=DIRECTION('center_axis',(0.,0.,1.));
#1258=DIRECTION('ref_axis',(1.,0.,0.));
#1259=DIRECTION('center_axis',(0.,-1.,0.));
#1260=DIRECTION('ref_axis',(0.,0.,1.));
#1261=DIRECTION('center_axis',(0.,0.,1.));
#1262=DIRECTION('ref_axis',(0.707106781186548,-0.707106781186548,0.));
#1263=DIRECTION('center_axis',(0.,0.,1.));
#1264=DIRECTION('ref_axis',(0.707106781186548,-0.707106781186548,0.));
#1265=DIRECTION('',(0.,0.,1.));
#1266=DIRECTION('',(0.,0.,-1.));
#1267=DIRECTION('center_axis',(0.,1.,0.));
#1268=DIRECTION('ref_axis',(0.707106781186548,0.,0.707106781186548));
#1269=DIRECTION('',(0.,1.,0.));
#1270=DIRECTION('center_axis',(0.408248290463861,-0.816496580927728,-0.408248290463861));
#1271=DIRECTION('ref_axis',(-0.577350269189626,-0.577350269189626,0.577350269189626));
#1272=DIRECTION('center_axis',(0.,-1.,0.));
#1273=DIRECTION('ref_axis',(-1.,0.,0.));
#1274=DIRECTION('center_axis',(0.,0.,1.));
#1275=DIRECTION('ref_axis',(0.,-1.,0.));
#1276=DIRECTION('center_axis',(-1.,0.,0.));
#1277=DIRECTION('ref_axis',(0.,0.,1.));
#1278=DIRECTION('center_axis',(0.,0.,1.));
#1279=DIRECTION('ref_axis',(-0.707106781186548,-0.707106781186548,0.));
#1280=DIRECTION('center_axis',(0.,0.,1.));
#1281=DIRECTION('ref_axis',(-0.707106781186548,-0.707106781186548,0.));
#1282=DIRECTION('',(0.,0.,1.));
#1283=DIRECTION('',(0.,0.,-1.));
#1284=DIRECTION('center_axis',(1.,0.,0.));
#1285=DIRECTION('ref_axis',(0.,-0.707106781186548,0.707106781186548));
#1286=DIRECTION('',(1.,0.,0.));
#1287=DIRECTION('center_axis',(0.,-1.,0.));
#1288=DIRECTION('ref_axis',(-0.707106781186548,0.,0.707106781186548));
#1289=DIRECTION('',(0.,-1.,0.));
#1290=DIRECTION('center_axis',(-1.,0.,0.));
#1291=DIRECTION('ref_axis',(0.,0.707106781186548,0.707106781186548));
#1292=DIRECTION('',(-1.,0.,0.));
#1293=DIRECTION('center_axis',(1.,0.,0.));
#1294=DIRECTION('ref_axis',(0.,1.,0.));
#1295=DIRECTION('',(0.,-1.,0.));
#1296=DIRECTION('center_axis',(0.,-1.,0.));
#1297=DIRECTION('ref_axis',(1.,0.,0.));
#1298=DIRECTION('',(-1.,0.,0.));
#1299=DIRECTION('center_axis',(1.,0.,0.));
#1300=DIRECTION('ref_axis',(0.,1.,0.));
#1301=DIRECTION('center_axis',(-1.,0.,0.));
#1302=DIRECTION('ref_axis',(0.,-1.,0.));
#1303=DIRECTION('',(0.,1.,0.));
#1304=DIRECTION('center_axis',(0.,1.,0.));
#1305=DIRECTION('ref_axis',(-1.,0.,0.));
#1306=DIRECTION('',(1.,0.,0.));
#1307=DIRECTION('center_axis',(0.,0.,1.));
#1308=DIRECTION('ref_axis',(1.,0.,0.));
#1309=DIRECTION('center_axis',(0.,0.,-1.));
#1310=DIRECTION('ref_axis',(1.,0.,0.));
#1311=DIRECTION('center_axis',(0.,0.,-1.));
#1312=DIRECTION('ref_axis',(1.,0.,0.));
#1313=DIRECTION('',(0.,0.,1.));
#1314=DIRECTION('center_axis',(0.,0.,-1.));
#1315=DIRECTION('ref_axis',(1.,0.,0.));
#1316=DIRECTION('center_axis',(0.,0.,-1.));
#1317=DIRECTION('ref_axis',(1.,0.,0.));
#1318=DIRECTION('center_axis',(0.,0.,-1.));
#1319=DIRECTION('ref_axis',(1.,0.,0.));
#1320=DIRECTION('center_axis',(0.,0.,-1.));
#1321=DIRECTION('ref_axis',(1.,0.,0.));
#1322=DIRECTION('center_axis',(0.,0.,-1.));
#1323=DIRECTION('ref_axis',(1.,0.,0.));
#1324=DIRECTION('',(0.,0.,1.));
#1325=DIRECTION('center_axis',(0.,0.,-1.));
#1326=DIRECTION('ref_axis',(1.,0.,0.));
#1327=DIRECTION('center_axis',(0.,0.,-1.));
#1328=DIRECTION('ref_axis',(1.,0.,0.));
#1329=DIRECTION('center_axis',(0.,0.,-1.));
#1330=DIRECTION('ref_axis',(1.,0.,0.));
#1331=DIRECTION('center_axis',(0.,0.,-1.));
#1332=DIRECTION('ref_axis',(1.,0.,0.));
#1333=DIRECTION('center_axis',(0.,0.,-1.));
#1334=DIRECTION('ref_axis',(1.,0.,0.));
#1335=DIRECTION('',(0.,0.,1.));
#1336=DIRECTION('center_axis',(0.,0.,-1.));
#1337=DIRECTION('ref_axis',(1.,0.,0.));
#1338=DIRECTION('center_axis',(0.,0.,-1.));
#1339=DIRECTION('ref_axis',(1.,0.,0.));
#1340=DIRECTION('center_axis',(0.,0.,-1.));
#1341=DIRECTION('ref_axis',(1.,0.,0.));
#1342=DIRECTION('center_axis',(0.,0.,-1.));
#1343=DIRECTION('ref_axis',(1.,0.,0.));
#1344=DIRECTION('center_axis',(0.,0.,-1.));
#1345=DIRECTION('ref_axis',(1.,0.,0.));
#1346=DIRECTION('',(0.,0.,1.));
#1347=DIRECTION('center_axis',(0.,0.,-1.));
#1348=DIRECTION('ref_axis',(1.,0.,0.));
#1349=DIRECTION('center_axis',(0.,0.,-1.));
#1350=DIRECTION('ref_axis',(1.,0.,0.));
#1351=DIRECTION('center_axis',(0.,0.,-1.));
#1352=DIRECTION('ref_axis',(1.,0.,0.));
#1353=DIRECTION('center_axis',(0.,0.,-1.));
#1354=DIRECTION('ref_axis',(1.,0.,0.));
#1355=DIRECTION('center_axis',(0.,0.,-1.));
#1356=DIRECTION('ref_axis',(1.,0.,0.));
#1357=DIRECTION('',(0.,0.,1.));
#1358=DIRECTION('center_axis',(0.,0.,-1.));
#1359=DIRECTION('ref_axis',(1.,0.,0.));
#1360=DIRECTION('center_axis',(0.,0.,-1.));
#1361=DIRECTION('ref_axis',(1.,0.,0.));
#1362=DIRECTION('center_axis',(0.,0.,-1.));
#1363=DIRECTION('ref_axis',(1.,0.,0.));
#1364=DIRECTION('center_axis',(0.,0.,-1.));
#1365=DIRECTION('ref_axis',(1.,0.,0.));
#1366=DIRECTION('center_axis',(0.,0.,-1.));
#1367=DIRECTION('ref_axis',(1.,0.,0.));
#1368=DIRECTION('',(0.,0.,1.));
#1369=DIRECTION('center_axis',(0.,0.,-1.));
#1370=DIRECTION('ref_axis',(1.,0.,0.));
#1371=DIRECTION('center_axis',(0.,0.,-1.));
#1372=DIRECTION('ref_axis',(1.,0.,0.));
#1373=DIRECTION('center_axis',(0.,0.,-1.));
#1374=DIRECTION('ref_axis',(1.,0.,0.));
#1375=DIRECTION('center_axis',(0.,0.,-1.));
#1376=DIRECTION('ref_axis',(1.,0.,0.));
#1377=DIRECTION('center_axis',(0.,0.,-1.));
#1378=DIRECTION('ref_axis',(1.,0.,0.));
#1379=DIRECTION('',(0.,0.,1.));
#1380=DIRECTION('center_axis',(0.,0.,-1.));
#1381=DIRECTION('ref_axis',(1.,0.,0.));
#1382=DIRECTION('center_axis',(0.,0.,-1.));
#1383=DIRECTION('ref_axis',(1.,0.,0.));
#1384=DIRECTION('center_axis',(0.,0.,-1.));
#1385=DIRECTION('ref_axis',(1.,0.,0.));
#1386=DIRECTION('center_axis',(0.,0.,-1.));
#1387=DIRECTION('ref_axis',(1.,0.,0.));
#1388=DIRECTION('center_axis',(0.,0.,-1.));
#1389=DIRECTION('ref_axis',(1.,0.,0.));
#1390=DIRECTION('',(0.,0.,1.));
#1391=DIRECTION('center_axis',(0.,0.,-1.));
#1392=DIRECTION('ref_axis',(1.,0.,0.));
#1393=DIRECTION('center_axis',(0.,0.,-1.));
#1394=DIRECTION('ref_axis',(1.,0.,0.));
#1395=DIRECTION('center_axis',(0.,0.,-1.));
#1396=DIRECTION('ref_axis',(1.,0.,0.));
#1397=DIRECTION('center_axis',(0.,0.,-1.));
#1398=DIRECTION('ref_axis',(1.,0.,0.));
#1399=DIRECTION('center_axis',(0.,0.,-1.));
#1400=DIRECTION('ref_axis',(1.,0.,0.));
#1401=DIRECTION('',(0.,0.,1.));
#1402=DIRECTION('center_axis',(0.,0.,-1.));
#1403=DIRECTION('ref_axis',(1.,0.,0.));
#1404=DIRECTION('center_axis',(0.,0.,-1.));
#1405=DIRECTION('ref_axis',(1.,0.,0.));
#1406=DIRECTION('center_axis',(0.,0.,-1.));
#1407=DIRECTION('ref_axis',(1.,0.,0.));
#1408=DIRECTION('center_axis',(0.,0.,-1.));
#1409=DIRECTION('ref_axis',(1.,0.,0.));
#1410=DIRECTION('center_axis',(0.,0.,-1.));
#1411=DIRECTION('ref_axis',(1.,0.,0.));
#1412=DIRECTION('',(0.,0.,1.));
#1413=DIRECTION('center_axis',(0.,0.,-1.));
#1414=DIRECTION('ref_axis',(1.,0.,0.));
#1415=DIRECTION('center_axis',(0.,0.,-1.));
#1416=DIRECTION('ref_axis',(1.,0.,0.));
#1417=DIRECTION('center_axis',(0.,0.,-1.));
#1418=DIRECTION('ref_axis',(1.,0.,0.));
#1419=DIRECTION('center_axis',(0.,0.,-1.));
#1420=DIRECTION('ref_axis',(1.,0.,0.));
#1421=DIRECTION('center_axis',(0.,0.,-1.));
#1422=DIRECTION('ref_axis',(1.,0.,0.));
#1423=DIRECTION('',(0.,0.,1.));
#1424=DIRECTION('center_axis',(0.,0.,-1.));
#1425=DIRECTION('ref_axis',(1.,0.,0.));
#1426=DIRECTION('center_axis',(0.,0.,-1.));
#1427=DIRECTION('ref_axis',(1.,0.,0.));
#1428=DIRECTION('center_axis',(0.,0.,-1.));
#1429=DIRECTION('ref_axis',(1.,0.,0.));
#1430=DIRECTION('center_axis',(0.,0.,-1.));
#1431=DIRECTION('ref_axis',(1.,0.,0.));
#1432=DIRECTION('center_axis',(0.,0.,-1.));
#1433=DIRECTION('ref_axis',(1.,0.,0.));
#1434=DIRECTION('',(0.,0.,1.));
#1435=DIRECTION('center_axis',(0.,0.,-1.));
#1436=DIRECTION('ref_axis',(1.,0.,0.));
#1437=DIRECTION('center_axis',(0.,0.,-1.));
#1438=DIRECTION('ref_axis',(1.,0.,0.));
#1439=DIRECTION('center_axis',(0.,0.,-1.));
#1440=DIRECTION('ref_axis',(1.,0.,0.));
#1441=CARTESIAN_POINT('',(0.,0.,0.));
#1442=CARTESIAN_POINT('Origin',(-17.5000002682209,13.5000002086163,31.5));
#1443=CARTESIAN_POINT('',(-17.5000002682209,14.5000002086163,31.));
#1444=CARTESIAN_POINT('',(-18.5000002682209,13.5000002086163,31.));
#1445=CARTESIAN_POINT('Origin',(-17.5000002682209,13.5000002086163,31.));
#1446=CARTESIAN_POINT('',(-18.0000002682209,13.5000002086163,31.5));
#1447=CARTESIAN_POINT('Origin',(-18.5000002682209,13.5000002086163,31.5));
#1448=CARTESIAN_POINT('',(-17.5000002682209,14.0000002086163,31.5));
#1449=CARTESIAN_POINT('Origin',(-17.5000002682209,13.5000002086163,31.5));
#1450=CARTESIAN_POINT('Origin',(-17.5000002682209,14.5000002086163,31.5));
#1451=CARTESIAN_POINT('Origin',(17.5000002682209,-13.5000002086163,31.5));
#1452=CARTESIAN_POINT('',(17.5000002682209,-14.5000002086163,31.));
#1453=CARTESIAN_POINT('',(18.5000002682209,-13.5000002086163,31.));
#1454=CARTESIAN_POINT('Origin',(17.5000002682209,-13.5000002086163,31.));
#1455=CARTESIAN_POINT('',(18.0000002682209,-13.5000002086163,31.5));
#1456=CARTESIAN_POINT('Origin',(18.5000002682209,-13.5000002086163,31.5));
#1457=CARTESIAN_POINT('',(17.5000002682209,-14.0000002086163,31.5));
#1458=CARTESIAN_POINT('Origin',(17.5000002682209,-13.5000002086163,31.5));
#1459=CARTESIAN_POINT('Origin',(17.5000002682209,-14.5000002086163,31.5));
#1460=CARTESIAN_POINT('Origin',(18.5000002682209,-7.00000010430813,31.5));
#1461=CARTESIAN_POINT('',(18.0000002682209,14.0000002086163,31.5));
#1462=CARTESIAN_POINT('',(18.0000002682209,-7.00000010430813,31.5));
#1463=CARTESIAN_POINT('',(18.5000002682209,14.5000002086163,31.));
#1464=CARTESIAN_POINT('',(18.5000002682209,-7.00000010430813,31.));
#1465=CARTESIAN_POINT('Origin',(18.5000002682209,14.5000002086163,31.5));
#1466=CARTESIAN_POINT('Origin',(-17.5000002682209,-13.5000002086163,31.5));
#1467=CARTESIAN_POINT('',(-18.5000002682209,-13.5000002086163,31.));
#1468=CARTESIAN_POINT('',(-17.5000002682209,-14.5000002086163,31.));
#1469=CARTESIAN_POINT('Origin',(-17.5000002682209,-13.5000002086163,31.));
#1470=CARTESIAN_POINT('',(-17.5000002682209,-14.0000002086163,31.5));
#1471=CARTESIAN_POINT('Origin',(-17.5000002682209,-14.5000002086163,31.5));
#1472=CARTESIAN_POINT('',(-18.0000002682209,-13.5000002086163,31.5));
#1473=CARTESIAN_POINT('Origin',(-17.5000002682209,-13.5000002086163,31.5));
#1474=CARTESIAN_POINT('Origin',(-18.5000002682209,-13.5000002086163,31.5));
#1475=CARTESIAN_POINT('Origin',(-9.00000013411045,-14.5000002086163,31.5));
#1476=CARTESIAN_POINT('',(-9.00000013411045,-14.5000002086163,31.));
#1477=CARTESIAN_POINT('',(-9.00000013411045,-14.0000002086163,31.5));
#1478=CARTESIAN_POINT('Origin',(-17.5000002682209,13.5000002086163,36.5));
#1479=CARTESIAN_POINT('',(-17.5000002682209,14.0000002086163,36.5));
#1480=CARTESIAN_POINT('',(-17.5000002682209,13.5000002086163,37.));
#1481=CARTESIAN_POINT('Origin',(-17.5000002682209,13.5000002086163,36.5));
#1482=CARTESIAN_POINT('',(-18.0000002682209,13.5000002086163,36.5));
#1483=CARTESIAN_POINT('Origin',(-17.5000002682209,13.5000002086163,36.5));
#1484=CARTESIAN_POINT('Origin',(-17.5000002682209,13.5000002086163,36.5));
#1485=CARTESIAN_POINT('Origin',(-17.5000002682209,13.5000002086163,31.));
#1486=CARTESIAN_POINT('',(-17.5000002682209,14.0000002086163,31.));
#1487=CARTESIAN_POINT('',(-18.0000002682209,13.5000002086163,31.));
#1488=CARTESIAN_POINT('Origin',(9.00000013411045,13.5000002086163,36.5));
#1489=CARTESIAN_POINT('',(18.0000002682209,14.0000002086163,36.5));
#1490=CARTESIAN_POINT('',(9.00000013411045,14.0000002086163,36.5));
#1491=CARTESIAN_POINT('',(17.5000002682209,13.5000002086163,37.));
#1492=CARTESIAN_POINT('',(9.00000013411045,13.5000002086163,37.));
#1493=CARTESIAN_POINT('Origin',(17.5000002682209,13.5000002086163,36.5));
#1494=CARTESIAN_POINT('Origin',(17.5000002682209,-13.5000002086163,36.5));
#1495=CARTESIAN_POINT('',(17.5000002682209,-14.0000002086163,36.5));
#1496=CARTESIAN_POINT('',(17.5000002682209,-13.5000002086163,37.));
#1497=CARTESIAN_POINT('Origin',(17.5000002682209,-13.5000002086163,36.5));
#1498=CARTESIAN_POINT('',(18.0000002682209,-13.5000002086163,36.5));
#1499=CARTESIAN_POINT('Origin',(17.5000002682209,-13.5000002086163,36.5));
#1500=CARTESIAN_POINT('Origin',(17.5000002682209,-13.5000002086163,36.5));
#1501=CARTESIAN_POINT('Origin',(17.5000002682209,-13.5000002086163,31.));
#1502=CARTESIAN_POINT('',(17.5000002682209,-14.0000002086163,31.));
#1503=CARTESIAN_POINT('',(18.0000002682209,-13.5000002086163,31.));
#1504=CARTESIAN_POINT('Origin',(17.5000002682209,-7.00000010430813,36.5));
#1505=CARTESIAN_POINT('',(17.5000002682209,-7.00000010430813,37.));
#1506=CARTESIAN_POINT('',(18.0000002682209,-7.00000010430813,36.5));
#1507=CARTESIAN_POINT('Origin',(-17.5000002682209,-13.5000002086163,36.5));
#1508=CARTESIAN_POINT('',(-18.0000002682209,-13.5000002086163,36.5));
#1509=CARTESIAN_POINT('',(-17.5000002682209,-13.5000002086163,37.));
#1510=CARTESIAN_POINT('Origin',(-17.5000002682209,-13.5000002086163,36.5));
#1511=CARTESIAN_POINT('',(-17.5000002682209,-14.0000002086163,36.5));
#1512=CARTESIAN_POINT('Origin',(-17.5000002682209,-13.5000002086163,36.5));
#1513=CARTESIAN_POINT('Origin',(-17.5000002682209,-13.5000002086163,36.5));
#1514=CARTESIAN_POINT('Origin',(-17.5000002682209,-13.5000002086163,31.));
#1515=CARTESIAN_POINT('',(-18.0000002682209,-13.5000002086163,31.));
#1516=CARTESIAN_POINT('',(-17.5000002682209,-14.0000002086163,31.));
#1517=CARTESIAN_POINT('Origin',(-9.00000013411045,-13.5000002086163,36.5));
#1518=CARTESIAN_POINT('',(-9.00000013411045,-13.5000002086163,37.));
#1519=CARTESIAN_POINT('',(-9.00000013411045,-14.0000002086163,36.5));
#1520=CARTESIAN_POINT('Origin',(-17.5000002682209,7.00000010430813,36.5));
#1521=CARTESIAN_POINT('',(-17.5000002682209,7.00000010430813,37.));
#1522=CARTESIAN_POINT('',(-18.0000002682209,7.00000010430813,36.5));
#1523=CARTESIAN_POINT('Origin',(-18.5000002682209,7.00000010430813,31.5));
#1524=CARTESIAN_POINT('',(-18.5000002682209,7.00000010430813,31.));
#1525=CARTESIAN_POINT('',(-18.0000002682209,7.00000010430813,31.5));
#1526=CARTESIAN_POINT('Origin',(9.00000013411045,14.5000002086163,31.5));
#1527=CARTESIAN_POINT('',(9.00000013411045,14.5000002086163,31.));
#1528=CARTESIAN_POINT('',(9.00000013411045,14.0000002086163,31.5));
#1529=CARTESIAN_POINT('Origin',(18.0000002682209,14.0000002086163,31.));
#1530=CARTESIAN_POINT('',(18.0000002682209,14.0000002086163,31.));
#1531=CARTESIAN_POINT('Origin',(0.,0.,31.));
#1532=CARTESIAN_POINT('',(25.,21.,31.));
#1533=CARTESIAN_POINT('',(25.,-21.,31.));
#1534=CARTESIAN_POINT('',(25.,-10.75,31.));
#1535=CARTESIAN_POINT('',(-25.,21.,31.));
#1536=CARTESIAN_POINT('',(12.75,21.,31.));
#1537=CARTESIAN_POINT('',(-25.,-21.,31.));
#1538=CARTESIAN_POINT('',(-25.,10.75,31.));
#1539=CARTESIAN_POINT('',(-12.75,-21.,31.));
#1540=CARTESIAN_POINT('Origin',(-18.0000002682209,-14.0000002086163,31.));
#1541=CARTESIAN_POINT('Origin',(0.,0.,37.));
#1542=CARTESIAN_POINT('Origin',(-18.0000002682209,14.0000002086163,31.));
#1543=CARTESIAN_POINT('Origin',(25.,21.,30.5));
#1544=CARTESIAN_POINT('',(25.5,21.,30.5));
#1545=CARTESIAN_POINT('Origin',(25.,21.,30.5));
#1546=CARTESIAN_POINT('',(25.,21.5,30.5));
#1547=CARTESIAN_POINT('Origin',(25.,21.,30.5));
#1548=CARTESIAN_POINT('Origin',(25.,21.,30.5));
#1549=CARTESIAN_POINT('Origin',(25.,21.,0.));
#1550=CARTESIAN_POINT('',(25.5,21.,0.));
#1551=CARTESIAN_POINT('',(25.,21.5,0.));
#1552=CARTESIAN_POINT('Origin',(25.,21.,0.));
#1553=CARTESIAN_POINT('',(25.,21.5,0.));
#1554=CARTESIAN_POINT('',(25.5,21.,0.));
#1555=CARTESIAN_POINT('Origin',(-25.,21.,30.5));
#1556=CARTESIAN_POINT('',(-25.,21.5,30.5));
#1557=CARTESIAN_POINT('Origin',(-25.,21.,30.5));
#1558=CARTESIAN_POINT('',(-25.5,21.,30.5));
#1559=CARTESIAN_POINT('Origin',(-25.,21.,30.5));
#1560=CARTESIAN_POINT('Origin',(-25.,21.,30.5));
#1561=CARTESIAN_POINT('Origin',(-25.,21.,0.));
#1562=CARTESIAN_POINT('',(-25.,21.5,0.));
#1563=CARTESIAN_POINT('',(-25.5,21.,0.));
#1564=CARTESIAN_POINT('Origin',(-25.,21.,0.));
#1565=CARTESIAN_POINT('',(-25.5,21.,0.));
#1566=CARTESIAN_POINT('',(-25.,21.5,0.));
#1567=CARTESIAN_POINT('Origin',(25.,-21.,30.5));
#1568=CARTESIAN_POINT('',(25.,-21.5,30.5));
#1569=CARTESIAN_POINT('Origin',(25.,-21.,30.5));
#1570=CARTESIAN_POINT('',(25.5,-21.,30.5));
#1571=CARTESIAN_POINT('Origin',(25.,-21.,30.5));
#1572=CARTESIAN_POINT('Origin',(25.,-21.,30.5));
#1573=CARTESIAN_POINT('Origin',(25.,-21.,0.));
#1574=CARTESIAN_POINT('',(25.,-21.5,0.));
#1575=CARTESIAN_POINT('',(25.5,-21.,0.));
#1576=CARTESIAN_POINT('Origin',(25.,-21.,0.));
#1577=CARTESIAN_POINT('',(25.5,-21.,0.));
#1578=CARTESIAN_POINT('',(25.,-21.5,0.));
#1579=CARTESIAN_POINT('Origin',(25.,-10.75,30.5));
#1580=CARTESIAN_POINT('',(25.5,-10.75,30.5));
#1581=CARTESIAN_POINT('Origin',(-25.,-21.,30.5));
#1582=CARTESIAN_POINT('',(-25.5,-21.,30.5));
#1583=CARTESIAN_POINT('Origin',(-25.,-21.,30.5));
#1584=CARTESIAN_POINT('',(-25.,-21.5,30.5));
#1585=CARTESIAN_POINT('Origin',(-25.,-21.,30.5));
#1586=CARTESIAN_POINT('Origin',(-25.,-21.,30.5));
#1587=CARTESIAN_POINT('Origin',(-25.,-21.,0.));
#1588=CARTESIAN_POINT('',(-25.5,-21.,0.));
#1589=CARTESIAN_POINT('',(-25.,-21.5,0.));
#1590=CARTESIAN_POINT('Origin',(-25.,-21.,0.));
#1591=CARTESIAN_POINT('',(-25.,-21.5,0.));
#1592=CARTESIAN_POINT('',(-25.5,-21.,0.));
#1593=CARTESIAN_POINT('Origin',(-12.75,-21.,30.5));
#1594=CARTESIAN_POINT('',(-12.75,-21.5,30.5));
#1595=CARTESIAN_POINT('Origin',(-25.,10.75,30.5));
#1596=CARTESIAN_POINT('',(-25.5,10.75,30.5));
#1597=CARTESIAN_POINT('Origin',(12.75,21.,30.5));
#1598=CARTESIAN_POINT('',(12.75,21.5,30.5));
#1599=CARTESIAN_POINT('Origin',(25.5,-21.5,0.));
#1600=CARTESIAN_POINT('',(25.5,21.5,0.));
#1601=CARTESIAN_POINT('Origin',(-25.5,-21.5,0.));
#1602=CARTESIAN_POINT('',(25.5,-21.5,0.));
#1603=CARTESIAN_POINT('Origin',(18.0000002682209,-14.0000002086163,31.));
#1604=CARTESIAN_POINT('Origin',(-25.5,21.5,0.));
#1605=CARTESIAN_POINT('',(-25.5,-21.5,0.));
#1606=CARTESIAN_POINT('Origin',(25.5,21.5,0.));
#1607=CARTESIAN_POINT('',(-25.5,21.5,0.));
#1608=CARTESIAN_POINT('Origin',(0.,0.,0.));
#1609=CARTESIAN_POINT('Origin',(7.62,13.97,0.));
#1610=CARTESIAN_POINT('',(7.27,13.97,-5.));
#1611=CARTESIAN_POINT('Origin',(7.62,13.97,-5.));
#1612=CARTESIAN_POINT('',(7.27,13.97,0.));
#1613=CARTESIAN_POINT('',(7.27,13.97,0.));
#1614=CARTESIAN_POINT('Origin',(7.62,13.97,0.));
#1615=CARTESIAN_POINT('Origin',(7.62,13.97,-5.));
#1616=CARTESIAN_POINT('Origin',(7.62,13.97,0.));
#1617=CARTESIAN_POINT('Origin',(-2.54,-13.97,0.));
#1618=CARTESIAN_POINT('',(-2.89,-13.97,-5.));
#1619=CARTESIAN_POINT('Origin',(-2.54,-13.97,-5.));
#1620=CARTESIAN_POINT('',(-2.89,-13.97,0.));
#1621=CARTESIAN_POINT('',(-2.89,-13.97,0.));
#1622=CARTESIAN_POINT('Origin',(-2.54,-13.97,0.));
#1623=CARTESIAN_POINT('Origin',(-2.54,-13.97,-5.));
#1624=CARTESIAN_POINT('Origin',(-2.54,-13.97,0.));
#1625=CARTESIAN_POINT('Origin',(-12.7,-13.97,0.));
#1626=CARTESIAN_POINT('',(-13.05,-13.97,-5.));
#1627=CARTESIAN_POINT('Origin',(-12.7,-13.97,-5.));
#1628=CARTESIAN_POINT('',(-13.05,-13.97,0.));
#1629=CARTESIAN_POINT('',(-13.05,-13.97,0.));
#1630=CARTESIAN_POINT('Origin',(-12.7,-13.97,0.));
#1631=CARTESIAN_POINT('Origin',(-12.7,-13.97,-5.));
#1632=CARTESIAN_POINT('Origin',(-12.7,-13.97,0.));
#1633=CARTESIAN_POINT('Origin',(-12.7,13.97,0.));
#1634=CARTESIAN_POINT('',(-13.05,13.97,-5.));
#1635=CARTESIAN_POINT('Origin',(-12.7,13.97,-5.));
#1636=CARTESIAN_POINT('',(-13.05,13.97,0.));
#1637=CARTESIAN_POINT('',(-13.05,13.97,0.));
#1638=CARTESIAN_POINT('Origin',(-12.7,13.97,0.));
#1639=CARTESIAN_POINT('Origin',(-12.7,13.97,-5.));
#1640=CARTESIAN_POINT('Origin',(-12.7,13.97,0.));
#1641=CARTESIAN_POINT('Origin',(2.54,-13.97,0.));
#1642=CARTESIAN_POINT('',(2.19,-13.97,-5.));
#1643=CARTESIAN_POINT('Origin',(2.54,-13.97,-5.));
#1644=CARTESIAN_POINT('',(2.19,-13.97,0.));
#1645=CARTESIAN_POINT('',(2.19,-13.97,0.));
#1646=CARTESIAN_POINT('Origin',(2.54,-13.97,0.));
#1647=CARTESIAN_POINT('Origin',(2.54,-13.97,-5.));
#1648=CARTESIAN_POINT('Origin',(2.54,-13.97,0.));
#1649=CARTESIAN_POINT('Origin',(-2.54,13.97,0.));
#1650=CARTESIAN_POINT('',(-2.89,13.97,-5.));
#1651=CARTESIAN_POINT('Origin',(-2.54,13.97,-5.));
#1652=CARTESIAN_POINT('',(-2.89,13.97,0.));
#1653=CARTESIAN_POINT('',(-2.89,13.97,0.));
#1654=CARTESIAN_POINT('Origin',(-2.54,13.97,0.));
#1655=CARTESIAN_POINT('Origin',(-2.54,13.97,-5.));
#1656=CARTESIAN_POINT('Origin',(-2.54,13.97,0.));
#1657=CARTESIAN_POINT('Origin',(12.7,13.97,0.));
#1658=CARTESIAN_POINT('',(12.35,13.97,-5.));
#1659=CARTESIAN_POINT('Origin',(12.7,13.97,-5.));
#1660=CARTESIAN_POINT('',(12.35,13.97,0.));
#1661=CARTESIAN_POINT('',(12.35,13.97,0.));
#1662=CARTESIAN_POINT('Origin',(12.7,13.97,0.));
#1663=CARTESIAN_POINT('Origin',(12.7,13.97,-5.));
#1664=CARTESIAN_POINT('Origin',(12.7,13.97,0.));
#1665=CARTESIAN_POINT('Origin',(7.62,-13.97,0.));
#1666=CARTESIAN_POINT('',(7.27,-13.97,-5.));
#1667=CARTESIAN_POINT('Origin',(7.62,-13.97,-5.));
#1668=CARTESIAN_POINT('',(7.27,-13.97,0.));
#1669=CARTESIAN_POINT('',(7.27,-13.97,0.));
#1670=CARTESIAN_POINT('Origin',(7.62,-13.97,0.));
#1671=CARTESIAN_POINT('Origin',(7.62,-13.97,-5.));
#1672=CARTESIAN_POINT('Origin',(7.62,-13.97,0.));
#1673=CARTESIAN_POINT('Origin',(-7.62,-13.97,0.));
#1674=CARTESIAN_POINT('',(-7.97,-13.97,-5.));
#1675=CARTESIAN_POINT('Origin',(-7.62,-13.97,-5.));
#1676=CARTESIAN_POINT('',(-7.97,-13.97,0.));
#1677=CARTESIAN_POINT('',(-7.97,-13.97,0.));
#1678=CARTESIAN_POINT('Origin',(-7.62,-13.97,0.));
#1679=CARTESIAN_POINT('Origin',(-7.62,-13.97,-5.));
#1680=CARTESIAN_POINT('Origin',(-7.62,-13.97,0.));
#1681=CARTESIAN_POINT('Origin',(12.7,-13.97,0.));
#1682=CARTESIAN_POINT('',(12.35,-13.97,-5.));
#1683=CARTESIAN_POINT('Origin',(12.7,-13.97,-5.));
#1684=CARTESIAN_POINT('',(12.35,-13.97,0.));
#1685=CARTESIAN_POINT('',(12.35,-13.97,0.));
#1686=CARTESIAN_POINT('Origin',(12.7,-13.97,0.));
#1687=CARTESIAN_POINT('Origin',(12.7,-13.97,-5.));
#1688=CARTESIAN_POINT('Origin',(12.7,-13.97,0.));
#1689=CARTESIAN_POINT('Origin',(-7.62,13.97,0.));
#1690=CARTESIAN_POINT('',(-7.97,13.97,-5.));
#1691=CARTESIAN_POINT('Origin',(-7.62,13.97,-5.));
#1692=CARTESIAN_POINT('',(-7.97,13.97,0.));
#1693=CARTESIAN_POINT('',(-7.97,13.97,0.));
#1694=CARTESIAN_POINT('Origin',(-7.62,13.97,0.));
#1695=CARTESIAN_POINT('Origin',(-7.62,13.97,-5.));
#1696=CARTESIAN_POINT('Origin',(-7.62,13.97,0.));
#1697=CARTESIAN_POINT('Origin',(2.54,13.97,0.));
#1698=CARTESIAN_POINT('',(2.19,13.97,-5.));
#1699=CARTESIAN_POINT('Origin',(2.54,13.97,-5.));
#1700=CARTESIAN_POINT('',(2.19,13.97,0.));
#1701=CARTESIAN_POINT('',(2.19,13.97,0.));
#1702=CARTESIAN_POINT('Origin',(2.54,13.97,0.));
#1703=CARTESIAN_POINT('Origin',(2.54,13.97,-5.));
#1704=CARTESIAN_POINT('Origin',(2.54,13.97,0.));
#1705=UNCERTAINTY_MEASURE_WITH_UNIT(LENGTH_MEASURE(0.01),#1709,
'DISTANCE_ACCURACY_VALUE',
'Maximum model space distance between geometric entities at asserted c
onnectivities');
#1706=UNCERTAINTY_MEASURE_WITH_UNIT(LENGTH_MEASURE(0.01),#1709,
'DISTANCE_ACCURACY_VALUE',
'Maximum model space distance between geometric entities at asserted c
onnectivities');
#1707=(
GEOMETRIC_REPRESENTATION_CONTEXT(3)
GLOBAL_UNCERTAINTY_ASSIGNED_CONTEXT((#1705))
GLOBAL_UNIT_ASSIGNED_CONTEXT((#1709,#1711,#1712))
REPRESENTATION_CONTEXT('','3D')
);
#1708=(
GEOMETRIC_REPRESENTATION_CONTEXT(3)
GLOBAL_UNCERTAINTY_ASSIGNED_CONTEXT((#1706))
GLOBAL_UNIT_ASSIGNED_CONTEXT((#1709,#1711,#1712))
REPRESENTATION_CONTEXT('','3D')
);
#1709=(
LENGTH_UNIT()
NAMED_UNIT(*)
SI_UNIT(.MILLI.,.METRE.)
);
#1710=(
LENGTH_UNIT()
NAMED_UNIT(*)
SI_UNIT($,.METRE.)
);
#1711=(
NAMED_UNIT(*)
PLANE_ANGLE_UNIT()
SI_UNIT($,.RADIAN.)
);
#1712=(
NAMED_UNIT(*)
SI_UNIT($,.STERADIAN.)
SOLID_ANGLE_UNIT()
);
#1713=SHAPE_DEFINITION_REPRESENTATION(#1714,#1715);
#1714=PRODUCT_DEFINITION_SHAPE('',$,#1717);
#1715=SHAPE_REPRESENTATION('',(#966),#1707);
#1716=PRODUCT_DEFINITION_CONTEXT('part definition',#1721,'design');
#1717=PRODUCT_DEFINITION('(\X2\672A4FDD5B58\X0\)','(\X2\672A4FDD5B58\X0\)',
#1718,#1716);
#1718=PRODUCT_DEFINITION_FORMATION('',$,#1723);
#1719=PRODUCT_RELATED_PRODUCT_CATEGORY('(\X2\672A4FDD5B58\X0\)',
'(\X2\672A4FDD5B58\X0\)',(#1723));
#1720=APPLICATION_PROTOCOL_DEFINITION('international standard',
'automotive_design',2009,#1721);
#1721=APPLICATION_CONTEXT(
'Core Data for Automotive Mechanical Design Process');
#1722=PRODUCT_CONTEXT('part definition',#1721,'mechanical');
#1723=PRODUCT('(\X2\672A4FDD5B58\X0\)','(\X2\672A4FDD5B58\X0\)',$,(#1722));
#1724=PRESENTATION_STYLE_ASSIGNMENT((#1727));
#1725=PRESENTATION_STYLE_ASSIGNMENT((#1728));
#1726=PRESENTATION_STYLE_ASSIGNMENT((#1729));
#1727=SURFACE_STYLE_USAGE(.BOTH.,#1730);
#1728=SURFACE_STYLE_USAGE(.BOTH.,#1731);
#1729=SURFACE_STYLE_USAGE(.BOTH.,#1732);
#1730=SURFACE_SIDE_STYLE('',(#1733));
#1731=SURFACE_SIDE_STYLE('',(#1734));
#1732=SURFACE_SIDE_STYLE('',(#1735));
#1733=SURFACE_STYLE_FILL_AREA(#1736);
#1734=SURFACE_STYLE_FILL_AREA(#1737);
#1735=SURFACE_STYLE_FILL_AREA(#1738);
#1736=FILL_AREA_STYLE('\X2\94A2\X0\ - \X2\7F0E5149\X0\',(#1739));
#1737=FILL_AREA_STYLE('\X2\5B9D77F3\X0\ - \X2\84DD5B9D77F3\X0\',(#1740));
#1738=FILL_AREA_STYLE('\X2\94C5\X0\ - \X2\7F0E5149\X0\',(#1741));
#1739=FILL_AREA_STYLE_COLOUR('\X2\94A2\X0\ - \X2\7F0E5149\X0\',#1742);
#1740=FILL_AREA_STYLE_COLOUR('\X2\5B9D77F3\X0\ - \X2\84DD5B9D77F3\X0\',
#1743);
#1741=FILL_AREA_STYLE_COLOUR('\X2\94C5\X0\ - \X2\7F0E5149\X0\',#1744);
#1742=COLOUR_RGB('\X2\94A2\X0\ - \X2\7F0E5149\X0\',0.627450980392157,0.627450980392157,
0.627450980392157);
#1743=COLOUR_RGB('\X2\5B9D77F3\X0\ - \X2\84DD5B9D77F3\X0\',0.152941176470588,
0.152941176470588,0.976470588235294);
#1744=COLOUR_RGB('\X2\94C5\X0\ - \X2\7F0E5149\X0\',0.815686274509804,0.815686274509804,
0.815686274509804);
ENDSEC;
END-ISO-10303-21;
